<svg version="1.1" id="Layer_1" xmlns="http://www.w3.org/2000/svg" xmlns:xlink="http://www.w3.org/1999/xlink" x="0px" y="0px"
	 width="100%" viewBox="0 0 632 220" enable-background="new 0 0 632 220" xml:space="preserve">
<path fill="#030303" opacity="1.000000" stroke="none" 
	d="
M484.000000,221.000000 
	C322.666687,221.000000 161.833374,221.000000 1.000043,221.000000 
	C1.000029,147.666687 1.000029,74.333389 1.000014,1.000063 
	C211.666611,1.000042 422.333221,1.000042 632.999878,1.000021 
	C632.999878,74.333275 632.999878,147.666550 632.999939,220.999908 
	C583.500000,221.000000 534.000000,221.000000 484.000000,221.000000 
M445.055634,25.624567 
	C448.823975,36.164234 452.592346,46.703899 456.343628,57.195839 
	C459.048737,57.195839 461.244965,57.454136 463.338715,57.102402 
	C464.670837,56.878620 466.590332,56.027660 466.983459,54.982765 
	C470.476715,45.698040 473.687897,36.307175 477.866699,27.158564 
	C477.866699,37.068363 477.866699,46.978165 477.866699,56.698582 
	C487.840179,56.698582 496.925873,56.698582 506.805817,57.149151 
	C508.936493,57.149151 511.067169,57.149151 513.781067,57.149151 
	C513.781067,52.470581 513.781067,48.089943 513.781067,43.770374 
	C521.650024,43.148575 522.979065,44.043846 524.066101,50.257839 
	C525.391602,57.835121 525.391602,57.835121 533.751099,56.821407 
	C533.442139,55.229504 533.133179,53.637596 533.417175,52.029919 
	C533.614624,52.019516 533.812134,52.009109 534.545776,52.413651 
	C539.578003,58.587826 546.173828,58.948948 553.135620,57.090431 
	C557.658020,55.883137 560.705811,52.969921 560.994446,47.940567 
	C561.280823,42.951572 558.730164,39.714127 554.343262,37.877071 
	C551.747192,36.789925 548.824097,36.399220 546.368042,35.093403 
	C544.867554,34.295605 543.591675,32.496712 542.989990,30.862104 
	C542.737366,30.175741 544.440430,27.894800 545.338745,27.844481 
	C547.120117,27.744698 550.057129,28.173304 550.585571,29.293980 
	C552.845337,34.086407 556.349304,32.854900 560.002991,32.387718 
	C559.059570,25.463676 555.623901,22.155819 548.928223,21.402058 
	C541.886047,20.609293 536.412842,23.761616 533.325623,29.747095 
	C532.539124,25.349085 529.485718,22.970184 525.460022,22.705475 
	C518.946899,22.277203 512.385071,22.590231 505.800018,22.590231 
	C505.800018,32.619419 505.800018,42.521397 504.763031,52.045650 
	C498.779938,51.463577 492.796814,50.881508 486.684937,50.286903 
	C486.684937,48.008553 486.684937,45.630306 486.684937,42.663425 
	C492.229004,42.663425 497.443481,42.663425 502.563232,42.663425 
	C502.563232,40.306198 502.563232,38.550785 502.563232,36.237289 
	C497.057648,36.237289 491.828339,36.237289 486.781036,36.237289 
	C486.781036,33.287754 486.781036,30.915108 486.781036,28.265934 
	C492.677948,28.265934 498.133087,28.265934 503.632629,28.265934 
	C503.632629,26.096514 503.632629,24.219492 503.632629,22.306353 
	C494.864349,22.306353 486.429047,22.306353 477.143280,22.098509 
	C475.001099,22.098509 472.858887,22.098509 470.505035,22.098509 
	C467.535309,31.478052 464.640991,40.619392 461.447693,50.704918 
	C458.317566,40.678764 455.464661,31.540556 452.592987,22.342207 
	C449.933685,22.342207 447.473633,22.342207 444.111389,22.245428 
	C441.365356,22.245428 438.619293,22.245428 435.746521,22.245428 
	C435.746521,34.079517 435.746521,45.470932 435.746521,56.963665 
	C438.434296,56.963665 440.858368,56.963665 443.178894,56.963665 
	C443.417572,56.419895 443.660767,56.123341 443.661957,55.825813 
	C443.698059,46.855179 443.655457,37.883656 443.784912,28.914574 
	C443.804535,27.554682 444.606171,26.206078 445.055634,25.624567 
M143.908875,57.154522 
	C152.179840,57.154522 160.450821,57.154522 168.770203,57.154522 
	C168.770203,54.904213 168.770203,53.035675 168.770203,50.684479 
	C162.695755,50.684479 156.961029,50.684479 151.470428,50.684479 
	C151.470428,47.792545 151.470428,45.398338 151.470428,42.615261 
	C156.955658,42.615261 162.038727,42.615261 167.557526,42.615261 
	C167.447037,40.311855 167.357071,38.436558 167.250626,36.217361 
	C161.602676,36.217361 156.514359,36.217361 151.367874,36.217361 
	C151.367874,33.447239 151.367874,31.061312 151.367874,28.210154 
	C157.232437,28.210154 162.812378,28.210154 168.503204,28.210154 
	C168.503204,26.001604 168.503204,24.271549 168.503204,22.446936 
	C159.875565,22.446936 151.528000,22.446936 143.017639,22.446936 
	C143.017639,29.974844 143.099045,37.121368 142.969391,44.264061 
	C142.929062,46.485966 142.317078,48.697491 141.039963,51.012424 
	C135.634445,51.012424 130.228912,51.012424 124.164856,51.012424 
	C124.164856,40.961163 124.164856,31.592636 124.164856,22.325089 
	C121.220360,22.325089 118.953819,22.325089 116.183830,22.325089 
	C116.183830,30.344530 116.252792,38.120129 116.130028,45.892693 
	C116.103043,47.600830 115.394714,49.298206 114.064659,51.020554 
	C108.650993,51.020554 103.237320,51.020554 97.151070,51.020554 
	C97.151070,40.956200 97.151070,31.578156 97.151070,22.345577 
	C94.186302,22.345577 91.921669,22.345577 89.132141,22.345577 
	C89.132141,31.992056 89.132141,41.379837 89.132141,50.644958 
	C82.522659,50.644958 76.449066,50.644958 70.392845,50.644958 
	C70.392845,47.917206 70.392845,45.515381 70.392845,42.720932 
	C75.823181,42.720932 80.926620,42.720932 86.530045,42.720932 
	C86.393082,40.857735 86.287819,39.425827 86.177750,37.141945 
	C80.791382,36.743820 75.405022,36.345695 70.057640,35.067417 
	C70.057640,32.955688 70.057640,30.843960 70.057640,28.118385 
	C76.208000,28.118385 81.905792,28.118385 87.841667,28.118385 
	C87.710480,25.754480 87.614594,24.026731 87.519295,22.309612 
	C68.453117,22.309612 49.918777,22.309612 31.292795,22.309612 
	C31.191406,23.712111 31.108332,24.861284 30.347240,25.844917 
	C26.334631,21.395407 21.277065,20.607763 15.743851,21.837069 
	C10.220107,23.064270 7.100876,26.384501 6.763935,31.119741 
	C6.397310,36.272137 8.544797,39.336952 14.225533,41.507019 
	C16.857471,42.512428 19.745405,42.990452 22.172775,44.331257 
	C23.478996,45.052769 25.083158,47.470474 24.722813,48.448742 
	C24.184443,49.910313 22.122248,51.503338 20.541077,51.700676 
	C18.828558,51.914413 15.974810,51.114574 15.273819,49.843807 
	C12.733396,45.238495 9.171513,46.621044 5.566336,46.994713 
	C5.351245,56.604626 17.888195,59.958946 26.199543,56.975739 
	C30.460260,55.446430 33.308456,52.568756 33.514530,47.842678 
	C33.717587,43.185852 31.448257,39.836479 27.198240,38.046192 
	C24.452477,36.889557 21.383131,36.429787 18.764996,35.068718 
	C17.242971,34.277473 15.958140,32.464508 15.321753,30.819193 
	C15.074350,30.179560 16.846327,27.905722 17.801247,27.838587 
	C19.579313,27.713573 22.555746,28.145981 23.060999,29.249464 
	C25.286547,34.110130 28.928303,32.781170 32.809444,32.514206 
	C32.545578,30.873863 32.339493,29.592735 33.032364,28.306629 
	C36.269516,28.306629 39.506664,28.306629 43.155880,28.306629 
	C43.155880,38.391808 43.155880,47.749462 43.155880,57.297176 
	C45.729813,57.157810 47.866829,57.042107 50.547009,56.994358 
	C50.620064,56.670124 50.693119,56.345894 50.928219,55.094120 
	C50.928219,46.216702 50.928219,37.339287 50.928219,28.528536 
	C55.030041,28.528536 58.296101,28.528536 62.190659,28.528536 
	C62.190659,37.833447 62.190659,46.921577 62.091679,56.570583 
	C62.393288,56.698658 62.694897,56.826729 63.912121,57.172134 
	C72.273613,57.043461 80.635101,56.914783 89.495117,56.903435 
	C89.664383,56.881229 89.833649,56.859028 90.889618,57.161301 
	C98.925850,57.045792 106.962082,56.930283 115.934547,56.905552 
	C124.955956,56.907944 133.977371,56.910339 143.908875,57.154522 
M267.875336,33.320259 
	C264.043182,24.098318 257.212585,20.089104 247.882523,21.585510 
	C239.098480,22.994343 234.234375,28.671213 233.350708,38.580349 
	C233.218079,40.067665 233.183319,41.563709 232.982635,42.231537 
	C231.544357,40.920174 230.106079,39.608814 228.424072,38.075233 
	C232.071579,35.439579 233.480835,31.867670 231.709442,27.684278 
	C229.912018,23.439409 225.938782,22.338564 221.807999,22.183697 
	C216.539185,21.986162 211.257355,22.135811 205.770447,22.135811 
	C205.770447,34.020031 205.770447,45.441845 205.770447,57.147732 
	C211.508438,57.147732 216.996475,57.301128 222.472366,57.108673 
	C229.226273,56.871300 232.416214,53.847122 234.461639,47.106117 
	C239.192795,56.712914 249.052246,60.917534 258.429077,56.429356 
	C262.150696,54.648014 264.869781,50.772179 267.991211,48.592743 
	C270.454254,55.296467 274.364349,57.907043 282.099762,58.012352 
	C289.744415,58.116417 293.733521,55.402012 296.412445,48.273174 
	C302.702087,57.052151 309.710693,59.847538 318.444031,57.060509 
	C324.274780,55.199776 327.454559,50.929989 327.328827,45.071510 
	C323.567749,44.618286 320.333588,43.981388 318.092804,48.845592 
	C315.870697,53.669315 308.465271,52.939793 305.832275,47.932255 
	C303.044464,42.630329 302.967438,36.989067 305.725922,31.633476 
	C308.194580,26.840473 314.600708,25.869570 317.923950,29.636189 
	C319.075745,30.941654 319.776703,32.644859 320.523865,33.898388 
	C323.204590,33.898388 325.497162,33.898388 327.809143,33.898388 
	C327.143341,27.548777 324.148804,23.817190 318.548004,22.161644 
	C309.708954,19.548906 302.408844,22.525606 296.442474,30.770180 
	C295.997711,30.513721 295.552979,30.257263 294.780457,29.385468 
	C293.063416,25.480419 290.642487,22.425644 285.375122,21.671471 
	C283.244904,21.768110 281.114685,21.864752 278.235901,21.860027 
	C271.133087,24.083008 269.365479,26.407223 268.573242,33.978130 
	C268.573242,33.978130 268.142120,33.985760 267.875336,33.320259 
M194.219009,44.940056 
	C194.057816,45.039047 193.896637,45.138039 193.239380,44.759293 
	C190.456680,39.652821 187.107697,34.764816 185.032349,29.385443 
	C182.343063,22.414701 177.750443,20.738386 170.841949,22.563040 
	C170.841949,33.885651 170.841949,45.403004 170.841949,56.858799 
	C173.598679,56.858799 175.999008,56.858799 178.836975,56.858799 
	C178.836975,49.375702 178.836975,42.222656 178.836975,34.786209 
	C179.530167,35.248859 179.865967,35.351677 179.988922,35.572826 
	C182.813919,40.654320 185.621414,45.745567 188.420441,50.841446 
	C192.351593,57.998497 194.151123,58.710217 202.381439,56.447403 
	C202.381439,45.025696 202.381439,33.655457 202.381439,22.319027 
	C199.701965,22.319027 197.435303,22.319027 194.785400,22.319027 
	C194.785400,30.009928 194.785400,37.457691 194.219009,44.940056 
M423.239410,44.759293 
	C420.456726,39.652885 417.107971,34.764900 415.032440,29.385653 
	C412.343170,22.415567 407.751251,20.737701 400.847748,22.561775 
	C400.847748,33.885578 400.847748,45.403019 400.847748,56.858276 
	C403.600067,56.858276 406.000214,56.858276 408.838074,56.858276 
	C408.838074,49.374859 408.838074,42.222340 408.838074,34.785034 
	C409.531158,35.249092 409.866547,35.352413 409.989624,35.573780 
	C412.814545,40.655235 415.622040,45.746429 418.420990,50.842262 
	C422.351166,57.997646 424.155426,58.711044 432.381226,56.446991 
	C432.381226,45.025200 432.381226,33.655155 432.381226,22.319122 
	C429.701660,22.319122 427.435059,22.319122 424.785400,22.319122 
	C424.785400,30.010897 424.785400,37.458176 424.218994,44.940037 
	C424.057831,45.039036 423.896637,45.138035 423.239410,44.759293 
M402.946503,80.266487 
	C400.394440,73.685257 395.625305,68.825462 388.752228,68.385056 
	C376.879364,67.624260 364.922455,68.174149 352.925110,68.174149 
	C352.925110,89.479897 352.925110,111.195938 352.925110,132.852905 
	C357.981689,132.852905 362.712341,132.852905 367.984619,132.852905 
	C367.984619,124.809029 367.984619,117.088501 367.984619,108.987778 
	C373.512848,108.987778 378.498871,109.180199 383.464691,108.945824 
	C392.488068,108.519958 399.444031,104.729286 403.649384,96.001564 
	C404.023285,96.019241 404.397156,96.036911 404.879517,96.979301 
	C404.879517,108.915489 404.879517,120.851677 404.879517,132.966644 
	C421.371368,132.966644 437.419464,132.966644 453.541595,132.966644 
	C453.541595,129.039429 453.541595,125.348106 453.541595,121.334427 
	C442.250793,121.334427 431.327301,121.334427 420.263000,121.334427 
	C420.263000,116.118576 420.263000,111.238182 420.263000,105.952469 
	C430.481354,105.952469 440.393402,105.952469 450.397949,105.952469 
	C450.397949,101.843735 450.397949,98.153397 450.397949,94.089867 
	C440.092346,94.089867 430.181793,94.089867 420.365570,94.089867 
	C420.365570,88.831940 420.365570,83.964531 420.365570,78.789330 
	C431.371582,78.789330 441.962372,78.789330 452.534302,78.789330 
	C452.534302,74.754242 452.534302,71.062683 452.534302,67.421982 
	C436.537872,67.421982 420.947449,67.421982 404.771088,67.421982 
	C404.771088,71.417480 404.771088,75.199516 404.372009,79.299324 
	C403.982025,79.842178 403.592041,80.385025 402.946503,80.266487 
M157.266800,200.324692 
	C156.508621,200.373550 155.750458,200.422409 154.264206,200.204803 
	C151.003860,198.110123 146.882446,196.680923 144.649780,193.792007 
	C138.707840,186.103485 138.901749,169.039124 144.289169,160.915604 
	C147.752472,155.693420 152.736862,153.490189 158.885300,154.222290 
	C164.777237,154.923828 168.561340,158.261993 170.161575,164.035019 
	C170.420197,164.968018 170.925400,165.832672 171.222824,166.514053 
	C176.205063,166.514053 180.937042,166.514053 185.965652,166.514053 
	C184.366165,155.761002 179.608887,148.094910 168.621445,144.637161 
	C168.078720,144.567596 167.535980,144.498032 166.363251,144.107925 
	C165.898834,144.101746 165.434418,144.095566 164.575241,143.697189 
	C164.046921,143.662079 163.518600,143.626984 162.118454,143.265762 
	C158.415680,143.383255 154.712891,143.500732 150.494629,143.412231 
	C150.007309,143.636703 149.519989,143.861191 148.272736,143.985046 
	C135.024582,147.125870 128.185349,156.447159 124.747368,169.853668 
	C118.835419,149.899536 107.436310,141.730270 88.337776,143.099701 
	C78.753662,143.786911 70.705597,147.526779 64.972633,155.602463 
	C59.422230,163.420990 58.450340,172.515381 57.635246,181.953201 
	C52.549862,175.153519 45.721432,172.268066 37.591087,170.682190 
	C37.058117,170.601593 36.525146,170.520996 35.328133,170.070709 
	C33.358150,169.248154 31.304632,168.579941 29.436640,167.568939 
	C26.160645,165.795868 24.903997,162.958023 25.694548,159.276337 
	C26.499498,155.527603 29.326586,154.435623 32.639675,154.158279 
	C38.123028,153.699249 41.020496,156.007004 43.973297,163.585922 
	C44.310581,163.676498 44.647865,163.767059 45.901077,164.071518 
	C50.128613,164.071518 54.356152,164.071518 58.617722,164.071518 
	C57.509434,152.608704 51.051403,145.426224 40.624264,143.581406 
	C40.080067,143.545395 39.535870,143.509384 38.113861,143.213074 
	C35.078766,143.302460 32.043667,143.391830 28.468803,143.342407 
	C27.983627,143.573029 27.498451,143.803650 26.250248,143.930801 
	C15.964995,146.702942 10.120208,152.886154 9.737766,161.399368 
	C9.304350,171.047287 13.690475,177.030197 24.283686,180.845139 
	C28.339643,182.305817 32.584454,183.236969 36.661068,184.646912 
	C40.550072,185.991943 44.063629,187.878448 44.225391,192.796524 
	C44.389603,197.788986 40.631817,199.033295 36.208897,200.289246 
	C35.136223,200.358383 34.063553,200.427521 32.278687,200.212845 
	C27.232399,199.500549 24.264914,196.272339 22.062706,191.090210 
	C17.304010,190.893158 12.545616,190.683624 7.784939,190.568573 
	C7.661168,190.565582 7.512446,191.595062 7.311233,192.953476 
	C10.485169,205.914688 20.528172,212.354645 36.252003,211.511429 
	C50.807629,210.730850 58.560379,204.370636 60.475304,191.346634 
	C66.536064,204.569122 76.645424,211.416458 90.980347,211.561234 
	C108.561203,211.738815 119.923103,203.354004 124.556107,185.544418 
	C132.297134,206.709579 144.812439,214.579544 163.761932,210.870865 
	C176.911484,208.297302 185.490433,198.763763 184.945465,186.986328 
	C181.152756,186.986328 177.317108,186.742813 173.543671,187.120758 
	C172.254105,187.249924 170.445450,188.712830 170.030762,189.953125 
	C168.039459,195.909012 164.238083,199.517441 157.266800,200.324692 
M81.568100,67.197731 
	C79.104416,67.197731 76.640724,67.197731 73.892639,67.197731 
	C73.892639,89.345490 73.892639,111.057564 73.892639,132.924225 
	C90.132027,132.924225 106.198044,132.924225 122.247299,132.924225 
	C122.247299,128.950851 122.247299,125.258820 122.247299,121.158188 
	C110.882645,121.158188 99.965538,121.158188 89.039032,121.158188 
	C89.039032,115.984573 89.039032,111.235954 89.039032,106.013153 
	C99.205063,106.013153 109.109650,106.013153 119.041183,106.013153 
	C119.041183,101.816528 119.041183,98.107750 119.041183,93.957115 
	C108.721916,93.957115 98.812233,93.957115 89.136993,93.957115 
	C89.136993,88.760597 89.136993,84.022041 89.136993,78.935349 
	C100.116371,78.935349 110.729935,78.935349 121.407677,78.935349 
	C121.658340,77.331024 121.855637,76.068329 122.231552,73.662384 
	C127.964455,89.671288 133.321426,104.642357 138.688339,119.609856 
	C140.256760,123.983932 140.649414,130.119705 143.763718,132.236145 
	C147.121704,134.518188 153.064651,132.787338 157.832458,133.272919 
	C161.387131,133.634933 162.717117,132.132935 163.814224,129.017303 
	C169.995483,111.463234 176.378387,93.980118 182.712585,76.480072 
	C183.165680,75.228233 183.778732,74.034286 184.317413,72.813416 
	C184.579880,72.893448 184.842331,72.973480 185.104797,73.053520 
	C185.104797,92.991158 185.104797,112.928795 185.104797,132.904907 
	C201.455017,132.904907 217.514694,132.904907 233.670792,132.904907 
	C233.670792,129.029099 233.670792,125.444458 233.670792,121.345650 
	C222.385345,121.345650 211.328445,121.345650 200.346313,121.345650 
	C200.346313,115.939217 200.346313,111.060455 200.346313,105.771851 
	C210.654907,105.771851 220.570099,105.771851 230.477478,105.771851 
	C230.477478,101.759361 230.477478,98.185196 230.477478,94.238365 
	C220.240616,94.238365 210.317352,94.238365 200.305603,94.238365 
	C200.305603,88.975700 200.305603,84.103836 200.305603,78.896164 
	C211.259476,78.896164 221.860062,78.896164 232.578949,78.896164 
	C232.578949,74.845551 232.578949,71.148376 232.578949,67.325668 
	C211.591278,67.325668 190.963837,67.325668 170.017059,67.325668 
	C164.519882,84.824249 159.021881,102.325523 153.137619,121.056267 
	C152.400360,119.006927 152.060883,118.167648 151.793976,117.305901 
	C147.221115,102.541489 142.476974,87.826172 138.203613,72.975418 
	C136.957123,68.643570 135.407516,66.923424 130.530075,67.046379 
	C114.545654,67.449356 98.544739,67.197731 81.568100,67.197731 
M276.166992,180.499954 
	C276.166992,190.280746 276.166992,200.061523 276.166992,209.890564 
	C281.459686,209.890564 286.194122,209.890564 291.381775,209.890564 
	C291.381775,191.850479 291.381775,174.104980 291.381775,156.024887 
	C297.480560,156.024887 303.141602,155.766983 308.755005,156.170883 
	C310.610046,156.304367 313.036896,157.712128 314.012207,159.278320 
	C318.584167,166.620300 322.874146,174.149338 326.963593,181.773163 
	C328.152832,183.990250 328.810608,186.724701 328.905121,189.252167 
	C329.164215,196.182083 328.994446,203.128036 328.994446,209.823822 
	C334.351044,209.823822 339.079071,209.823822 343.359589,209.823822 
	C343.974579,200.546585 343.023407,191.185165 345.579437,182.906586 
	C348.213928,174.373749 354.264313,166.895660 358.818695,158.955276 
	C359.232605,158.233643 359.633209,157.504349 360.044525,156.781235 
	C362.313751,152.792206 364.584381,148.804016 367.124512,144.341141 
	C365.527405,144.270508 364.712311,144.347717 363.949188,144.183578 
	C353.891632,142.020523 347.922363,146.020950 344.746704,155.780777 
	C343.011139,161.114731 339.766266,165.957581 336.889191,171.639771 
	C332.554626,163.298523 328.553680,155.999252 324.962555,148.503647 
	C323.393890,145.229462 321.525574,144.078629 317.794281,144.097473 
	C283.295654,144.271667 248.795761,144.200317 214.296249,144.200333 
	C212.681870,144.200333 211.067490,144.200333 209.342163,144.200333 
	C209.342163,166.469604 209.342163,188.203262 209.342163,209.877533 
	C225.701035,209.877533 241.768890,209.877533 257.797119,209.877533 
	C257.797119,205.965088 257.797119,202.370804 257.797119,198.227966 
	C246.497116,198.227966 235.441666,198.227966 224.407745,198.227966 
	C224.407745,192.920120 224.407745,188.175125 224.407745,183.032364 
	C234.626892,183.032364 244.552658,183.032364 254.620972,183.032364 
	C254.620972,178.918045 254.620972,175.215271 254.620972,171.121368 
	C244.357986,171.121368 234.431961,171.121368 224.366425,171.121368 
	C224.366425,165.976776 224.366425,161.234421 224.366425,156.309830 
	C241.680176,156.309830 258.734711,156.309830 276.166992,156.309830 
	C276.166992,164.226730 276.166992,171.863342 276.166992,180.499954 
M65.205421,79.373154 
	C60.962555,73.329979 54.977982,69.304886 47.915699,68.564011 
	C35.938103,67.307510 23.834339,67.253662 11.494202,66.680878 
	C11.494202,89.396988 11.494202,111.084167 11.494202,132.970932 
	C22.191345,132.970932 32.736591,133.854813 43.032753,132.635452 
	C49.093273,131.917709 55.650581,128.962158 60.426998,125.091293 
	C72.685989,115.156433 74.522774,95.168839 65.205421,79.373154 
M456.234863,121.476685 
	C456.234863,125.256828 456.234863,129.036972 456.234863,132.949905 
	C461.528229,132.949905 466.278778,132.949905 471.640930,132.949905 
	C471.640930,124.343506 471.640930,115.968788 471.640930,107.299469 
	C473.227478,107.299469 474.202728,107.305367 475.177948,107.298576 
	C487.769104,107.210876 489.339966,108.623459 491.303955,120.976318 
	C491.947479,125.023880 493.096893,128.991013 494.011047,132.977631 
	C499.605164,132.977631 504.696960,132.977631 509.333099,132.977631 
	C508.040649,126.908714 506.558990,120.996124 505.568817,115.002342 
	C504.618622,109.250343 502.213928,104.628784 496.860107,101.641502 
	C497.502014,101.207253 497.859528,100.911041 498.262024,100.701149 
	C506.685730,96.308411 509.984497,90.507561 508.690338,82.340157 
	C507.421295,74.331436 502.259613,68.803215 492.995483,68.201866 
	C480.963562,67.420860 468.842651,68.011070 456.234863,68.011070 
	C456.234863,85.296188 456.234863,102.890411 456.234863,121.476685 
M283.841522,97.634506 
	C283.245605,122.964691 298.235016,137.047485 322.707794,134.149994 
	C339.928711,132.111099 350.462494,118.269981 349.946777,98.358734 
	C349.452759,79.285965 337.030792,66.527153 318.423767,65.980934 
	C298.393799,65.392952 285.386841,76.960564 283.841522,97.634506 
M251.391602,74.559601 
	C251.391602,72.269196 251.391602,69.978798 251.391602,67.483078 
	C246.163879,67.483078 241.434769,67.483078 236.549530,67.483078 
	C236.549530,89.479179 236.549530,111.193848 236.549530,132.878143 
	C252.938293,132.878143 269.015289,132.878143 284.938354,132.878143 
	C284.938354,128.663376 284.938354,124.763985 284.938354,120.397095 
	C273.661621,120.397095 262.740967,120.397095 251.391617,120.397095 
	C251.391617,105.128502 251.391617,90.335876 251.391602,74.559601 
M570.064575,30.879591 
	C570.763428,30.024906 571.395691,28.511515 572.172913,28.432943 
	C575.077881,28.139282 578.030273,28.315525 581.352051,28.315525 
	C581.352051,38.218838 581.352051,47.494865 581.352051,56.975098 
	C584.177856,56.975098 586.602600,56.975098 589.624146,56.975098 
	C589.624146,47.380482 589.624146,37.994656 589.624146,28.305519 
	C591.516846,28.305519 592.867065,28.507261 594.135071,28.269747 
	C598.984924,27.361319 601.375183,29.727423 603.836426,33.753963 
	C607.794434,40.228931 610.315369,46.745338 609.319519,54.392563 
	C609.218567,55.168110 609.469543,55.989479 609.576965,56.969475 
	C612.196716,56.969475 614.620117,56.969475 617.909668,56.969475 
	C613.894592,42.875103 624.523987,33.719414 629.232239,22.527477 
	C623.350098,20.915642 619.649353,22.404163 617.837036,28.156607 
	C616.959167,30.943094 615.213318,33.456131 613.875061,36.064686 
	C610.832092,31.231079 608.950867,24.848221 604.830200,22.635180 
	C600.560120,20.341852 594.119385,22.089657 588.628052,22.071255 
	C587.629150,22.067907 586.630188,22.070776 585.631287,22.070776 
	C577.869934,22.070776 570.108582,22.070776 562.273682,22.070776 
	C562.273682,34.082375 562.273682,45.492065 562.273682,56.946762 
	C564.934631,56.946762 567.338196,56.946762 570.062744,56.946762 
	C570.062744,48.405483 570.062744,40.110836 570.064575,30.879591 
M188.603867,205.496002 
	C188.603867,206.933075 188.603867,208.370148 188.603867,209.942017 
	C193.837616,209.942017 198.571152,209.942017 203.484680,209.942017 
	C203.484680,188.016800 203.484680,166.340881 203.484680,144.470963 
	C198.476227,144.470963 193.748840,144.470963 188.603806,144.470963 
	C188.603806,164.657272 188.603806,184.574585 188.603867,205.496002 
M337.702637,48.531990 
	C337.702637,46.904728 337.702637,45.277462 337.702637,43.508484 
	C343.021973,43.508484 347.888336,43.508484 353.183228,43.508484 
	C353.183228,48.285408 353.183228,52.698830 353.183228,57.003220 
	C355.913788,57.003220 358.204315,57.003220 360.572784,57.003220 
	C360.572784,45.279785 360.572784,33.750797 360.572784,22.308228 
	C357.918701,22.308228 355.645111,22.308228 352.765808,22.308228 
	C352.765808,27.235769 352.765808,31.943727 352.765808,36.450104 
	C347.417328,36.450104 342.691071,36.450104 337.475647,36.450104 
	C337.475647,31.488287 337.475647,26.909794 337.475647,22.241592 
	C334.664520,22.241592 332.364410,22.241592 329.899109,22.241592 
	C329.899109,33.925259 329.899109,45.439518 329.899109,56.805023 
	C332.686554,56.805023 335.074432,56.805023 337.702637,56.805023 
	C337.702637,54.110130 337.702637,51.796486 337.702637,48.531990 
M371.652161,22.063585 
	C370.489563,22.970270 368.353302,23.842175 368.319458,24.789183 
	C368.064484,31.926743 368.067261,39.084255 368.304871,46.225040 
	C368.474426,51.321148 370.933990,55.677048 375.999573,56.656601 
	C380.718048,57.569027 386.052368,57.816601 390.548645,56.467419 
	C393.521454,55.575378 397.258087,51.538502 397.579681,48.575977 
	C398.517975,39.933285 397.913025,31.123060 397.913025,22.429943 
	C395.203339,22.429943 392.826172,22.429943 390.147980,22.429943 
	C390.147980,29.586813 390.185944,36.381496 390.136841,43.175552 
	C390.091766,49.417095 388.014648,51.969357 383.178589,51.914104 
	C378.408020,51.859596 376.337341,49.255344 376.265686,42.994247 
	C376.199127,37.176506 376.098389,31.351894 376.311188,25.541243 
	C376.419647,22.579302 375.289368,21.644726 371.652161,22.063585 
z"/>
<path fill="#F9F9F9" opacity="1.000000" stroke="none" 
	d="
M151.010117,143.618225 
	C154.712891,143.500732 158.415680,143.383255 162.620361,143.668060 
	C163.738190,144.076721 164.354095,144.083069 164.970001,144.089417 
	C165.434418,144.095566 165.898834,144.101746 166.731323,144.522003 
	C167.724136,144.983475 168.348907,145.030884 168.973663,145.078293 
	C179.608887,148.094910 184.366165,155.761002 185.965652,166.514053 
	C180.937042,166.514053 176.205063,166.514053 171.222824,166.514053 
	C170.925400,165.832672 170.420197,164.968018 170.161575,164.035019 
	C168.561340,158.261993 164.777237,154.923828 158.885300,154.222290 
	C152.736862,153.490189 147.752472,155.693420 144.289169,160.915604 
	C138.901749,169.039124 138.707840,186.103485 144.649780,193.792007 
	C146.882446,196.680923 151.003860,198.110123 154.704041,200.615753 
	C156.098816,200.853683 157.053757,200.680649 158.008682,200.507629 
	C164.238083,199.517441 168.039459,195.909012 170.030762,189.953125 
	C170.445450,188.712830 172.254105,187.249924 173.543671,187.120758 
	C177.317108,186.742813 181.152756,186.986328 184.945465,186.986328 
	C185.490433,198.763763 176.911484,208.297302 163.761932,210.870865 
	C144.812439,214.579544 132.297134,206.709579 124.556107,185.544418 
	C119.923103,203.354004 108.561203,211.738815 90.980347,211.561234 
	C76.645424,211.416458 66.536064,204.569122 60.475304,191.346634 
	C58.560379,204.370636 50.807629,210.730850 36.252003,211.511429 
	C20.528172,212.354645 10.485169,205.914688 7.849531,192.512878 
	C13.002790,192.018921 17.617752,191.965561 22.232712,191.912201 
	C24.264914,196.272339 27.232399,199.500549 32.733032,200.646866 
	C34.460815,200.860764 35.734257,200.640640 37.007698,200.420517 
	C40.631817,199.033295 44.389603,197.788986 44.225391,192.796524 
	C44.063629,187.878448 40.550072,185.991943 36.661068,184.646912 
	C32.584454,183.236969 28.339643,182.305817 24.283686,180.845139 
	C13.690475,177.030197 9.304350,171.047287 9.737766,161.399368 
	C10.120208,152.886154 15.964995,146.702942 26.774788,144.192688 
	C27.869078,144.130127 28.438826,143.805664 29.008572,143.481216 
	C32.043667,143.391830 35.078766,143.302460 38.611931,143.596863 
	C39.739262,143.989182 40.368523,143.997711 40.997787,144.006256 
	C51.051403,145.426224 57.509434,152.608704 58.617722,164.071518 
	C54.356152,164.071518 50.128613,164.071518 45.322937,163.770569 
	C44.536312,163.234192 44.279835,163.077148 43.975365,162.998489 
	C41.020496,156.007004 38.123028,153.699249 32.639675,154.158279 
	C29.326586,154.435623 26.499498,155.527603 25.694548,159.276337 
	C24.903997,162.958023 26.160645,165.795868 29.436640,167.568939 
	C31.304632,168.579941 33.358150,169.248154 35.713333,170.508301 
	C36.722713,170.992661 37.346889,171.039459 37.971066,171.086243 
	C45.721432,172.268066 52.549862,175.153519 57.635246,181.953201 
	C58.450340,172.515381 59.422230,163.420990 64.972633,155.602463 
	C70.705597,147.526779 78.753662,143.786911 88.337776,143.099701 
	C107.436310,141.730270 118.835419,149.899536 124.747368,169.853668 
	C128.185349,156.447159 135.024582,147.125870 148.791107,144.235260 
	C149.876343,144.196396 150.443237,143.907303 151.010117,143.618225 
M101.001381,197.766464 
	C109.327393,190.794876 111.964066,176.552643 107.143837,164.687912 
	C104.428917,158.005310 99.529892,154.358017 92.286209,154.128723 
	C85.066589,153.900192 79.543556,157.501663 76.686539,164.336090 
	C73.620148,171.671402 73.505692,179.297058 75.483276,186.848083 
	C78.631485,198.868942 88.808861,203.378418 101.001381,197.766464 
M124.967155,174.231659 
	C124.843407,173.808807 124.719658,173.385956 124.595909,172.963104 
	C124.378098,173.066727 124.160294,173.170364 123.942482,173.274002 
	C124.255600,173.762527 124.568718,174.251053 124.967155,174.231659 
M124.037849,181.278229 
	C124.281769,181.475922 124.525688,181.673630 124.769615,181.871323 
	C124.764435,181.290192 124.759262,180.709061 124.754082,180.127930 
	C124.514687,180.336258 124.275291,180.544586 124.037849,181.278229 
z"/>
<path fill="#F8F8F8" opacity="1.000000" stroke="none" 
	d="
M82.059128,67.197731 
	C98.544739,67.197731 114.545654,67.449356 130.530075,67.046379 
	C135.407516,66.923424 136.957123,68.643570 138.203613,72.975418 
	C142.476974,87.826172 147.221115,102.541489 151.793976,117.305901 
	C152.060883,118.167648 152.400360,119.006927 153.137619,121.056267 
	C159.021881,102.325523 164.519882,84.824249 170.017059,67.325668 
	C190.963837,67.325668 211.591278,67.325668 232.578949,67.325668 
	C232.578949,71.148376 232.578949,74.845551 232.578949,78.896164 
	C221.860062,78.896164 211.259476,78.896164 200.305603,78.896164 
	C200.305603,84.103836 200.305603,88.975700 200.305603,94.238365 
	C210.317352,94.238365 220.240616,94.238365 230.477478,94.238365 
	C230.477478,98.185196 230.477478,101.759361 230.477478,105.771851 
	C220.570099,105.771851 210.654907,105.771851 200.346313,105.771851 
	C200.346313,111.060455 200.346313,115.939217 200.346313,121.345650 
	C211.328445,121.345650 222.385345,121.345650 233.670792,121.345650 
	C233.670792,125.444458 233.670792,129.029099 233.670792,132.904907 
	C217.514694,132.904907 201.455017,132.904907 185.104797,132.904907 
	C185.104797,112.928795 185.104797,92.991158 185.104797,73.053520 
	C184.842331,72.973480 184.579880,72.893448 184.317413,72.813416 
	C183.778732,74.034286 183.165680,75.228233 182.712585,76.480072 
	C176.378387,93.980118 169.995483,111.463234 163.814224,129.017303 
	C162.717117,132.132935 161.387131,133.634933 157.832458,133.272919 
	C153.064651,132.787338 147.121704,134.518188 143.763718,132.236145 
	C140.649414,130.119705 140.256760,123.983932 138.688339,119.609856 
	C133.321426,104.642357 127.964455,89.671288 122.231552,73.662384 
	C121.855637,76.068329 121.658340,77.331024 121.407677,78.935349 
	C110.729935,78.935349 100.116371,78.935349 89.136993,78.935349 
	C89.136993,84.022041 89.136993,88.760597 89.136993,93.957115 
	C98.812233,93.957115 108.721916,93.957115 119.041183,93.957115 
	C119.041183,98.107750 119.041183,101.816528 119.041183,106.013153 
	C109.109650,106.013153 99.205063,106.013153 89.039032,106.013153 
	C89.039032,111.235954 89.039032,115.984573 89.039032,121.158188 
	C99.965538,121.158188 110.882645,121.158188 122.247299,121.158188 
	C122.247299,125.258820 122.247299,128.950851 122.247299,132.924225 
	C106.198044,132.924225 90.132027,132.924225 73.892639,132.924225 
	C73.892639,111.057564 73.892639,89.345490 73.892639,67.197731 
	C76.640724,67.197731 79.104416,67.197731 82.059128,67.197731 
z"/>
<path fill="#F9F9F9" opacity="1.000000" stroke="none" 
	d="
M276.166992,179.999969 
	C276.166992,171.863342 276.166992,164.226730 276.166992,156.309830 
	C258.734711,156.309830 241.680176,156.309830 224.366425,156.309830 
	C224.366425,161.234421 224.366425,165.976776 224.366425,171.121368 
	C234.431961,171.121368 244.357986,171.121368 254.620972,171.121368 
	C254.620972,175.215271 254.620972,178.918045 254.620972,183.032364 
	C244.552658,183.032364 234.626892,183.032364 224.407745,183.032364 
	C224.407745,188.175125 224.407745,192.920120 224.407745,198.227966 
	C235.441666,198.227966 246.497116,198.227966 257.797119,198.227966 
	C257.797119,202.370804 257.797119,205.965088 257.797119,209.877533 
	C241.768890,209.877533 225.701035,209.877533 209.342163,209.877533 
	C209.342163,188.203262 209.342163,166.469604 209.342163,144.200333 
	C211.067490,144.200333 212.681870,144.200333 214.296249,144.200333 
	C248.795761,144.200317 283.295654,144.271667 317.794281,144.097473 
	C321.525574,144.078629 323.393890,145.229462 324.962555,148.503647 
	C328.553680,155.999252 332.554626,163.298523 336.889191,171.639771 
	C339.766266,165.957581 343.011139,161.114731 344.746704,155.780777 
	C347.922363,146.020950 353.891632,142.020523 363.949188,144.183578 
	C364.712311,144.347717 365.527405,144.270508 367.124512,144.341141 
	C364.584381,148.804016 362.313751,152.792206 360.044525,156.781235 
	C359.633209,157.504349 359.232605,158.233643 358.818695,158.955276 
	C354.264313,166.895660 348.213928,174.373749 345.579437,182.906586 
	C343.023407,191.185165 343.974579,200.546585 343.359589,209.823822 
	C339.079071,209.823822 334.351044,209.823822 328.994446,209.823822 
	C328.994446,203.128036 329.164215,196.182083 328.905121,189.252167 
	C328.810608,186.724701 328.152832,183.990250 326.963593,181.773163 
	C322.874146,174.149338 318.584167,166.620300 314.012207,159.278320 
	C313.036896,157.712128 310.610046,156.304367 308.755005,156.170883 
	C303.141602,155.766983 297.480560,156.024887 291.381775,156.024887 
	C291.381775,174.104980 291.381775,191.850479 291.381775,209.890564 
	C286.194122,209.890564 281.459686,209.890564 276.166992,209.890564 
	C276.166992,200.061523 276.166992,190.280746 276.166992,179.999969 
z"/>
<path fill="#F8F8F8" opacity="1.000000" stroke="none" 
	d="
M65.437157,79.652954 
	C74.522774,95.168839 72.685989,115.156433 60.426998,125.091293 
	C55.650581,128.962158 49.093273,131.917709 43.032753,132.635452 
	C32.736591,133.854813 22.191345,132.970932 11.494202,132.970932 
	C11.494202,111.084167 11.494202,89.396988 11.494202,66.680878 
	C23.834339,67.253662 35.938103,67.307510 47.915699,68.564011 
	C54.977982,69.304886 60.962555,73.329979 65.437157,79.652954 
M49.668381,83.840996 
	C43.063332,77.511581 34.865356,79.315681 26.718235,79.031143 
	C26.718235,93.270393 26.718235,107.138046 26.718235,121.148361 
	C31.355497,121.148361 35.690643,121.454445 39.964149,121.071915 
	C45.472008,120.578888 49.814541,117.664017 52.123764,112.624512 
	C56.560711,102.941582 56.845360,93.370651 49.668381,83.840996 
z"/>
<path fill="#F8F8F8" opacity="1.000000" stroke="none" 
	d="
M456.234863,120.980652 
	C456.234863,102.890411 456.234863,85.296188 456.234863,68.011070 
	C468.842651,68.011070 480.963562,67.420860 492.995483,68.201866 
	C502.259613,68.803215 507.421295,74.331436 508.690338,82.340157 
	C509.984497,90.507561 506.685730,96.308411 498.262024,100.701149 
	C497.859528,100.911041 497.502014,101.207253 496.860107,101.641502 
	C502.213928,104.628784 504.618622,109.250343 505.568817,115.002342 
	C506.558990,120.996124 508.040649,126.908714 509.333099,132.977631 
	C504.696960,132.977631 499.605164,132.977631 494.011047,132.977631 
	C493.096893,128.991013 491.947479,125.023880 491.303955,120.976318 
	C489.339966,108.623459 487.769104,107.210876 475.177948,107.298576 
	C474.202728,107.305367 473.227478,107.299469 471.640930,107.299469 
	C471.640930,115.968788 471.640930,124.343506 471.640930,132.949905 
	C466.278778,132.949905 461.528229,132.949905 456.234863,132.949905 
	C456.234863,129.036972 456.234863,125.256828 456.234863,120.980652 
M488.902802,80.305710 
	C483.238312,79.717049 477.573792,79.128395 471.629852,78.510689 
	C471.629852,85.025314 471.629852,90.431709 471.629852,95.924881 
	C476.498932,95.924881 481.240356,96.563629 485.680023,95.682327 
	C488.291138,95.164017 491.409668,92.688690 492.530151,90.272736 
	C494.065918,86.961594 493.442108,83.029732 488.902802,80.305710 
z"/>
<path fill="#F9F9F9" opacity="1.000000" stroke="none" 
	d="
M283.864441,97.165024 
	C285.386841,76.960564 298.393799,65.392952 318.423767,65.980934 
	C337.030792,66.527153 349.452759,79.285965 349.946777,98.358734 
	C350.462494,118.269981 339.928711,132.111099 322.707794,134.149994 
	C298.235016,137.047485 283.245605,122.964691 283.864441,97.165024 
M329.579590,83.028419 
	C319.316895,72.629036 304.903107,76.047119 300.737000,90.023552 
	C298.394684,97.881683 298.541504,105.821854 301.808777,113.464577 
	C304.658813,120.131241 309.890625,123.360130 317.128418,123.304573 
	C324.152985,123.250656 329.635101,119.744469 332.045929,112.924095 
	C335.567444,102.961632 335.600769,93.054649 329.579590,83.028419 
z"/>
<path fill="#F8F8F8" opacity="1.000000" stroke="none" 
	d="
M404.771088,78.981552 
	C404.771088,75.199516 404.771088,71.417480 404.771088,67.421982 
	C420.947449,67.421982 436.537872,67.421982 452.534302,67.421982 
	C452.534302,71.062683 452.534302,74.754242 452.534302,78.789330 
	C441.962372,78.789330 431.371582,78.789330 420.365570,78.789330 
	C420.365570,83.964531 420.365570,88.831940 420.365570,94.089867 
	C430.181793,94.089867 440.092346,94.089867 450.397949,94.089867 
	C450.397949,98.153397 450.397949,101.843735 450.397949,105.952469 
	C440.393402,105.952469 430.481354,105.952469 420.263000,105.952469 
	C420.263000,111.238182 420.263000,116.118576 420.263000,121.334427 
	C431.327301,121.334427 442.250793,121.334427 453.541595,121.334427 
	C453.541595,125.348106 453.541595,129.039429 453.541595,132.966644 
	C437.419464,132.966644 421.371368,132.966644 404.879517,132.966644 
	C404.879517,120.851677 404.879517,108.915489 404.928040,96.055496 
	C404.908051,89.748314 404.839569,84.364929 404.771088,78.981552 
z"/>
<path fill="#F9F9F9" opacity="1.000000" stroke="none" 
	d="
M403.088013,96.024094 
	C399.444031,104.729286 392.488068,108.519958 383.464691,108.945824 
	C378.498871,109.180199 373.512848,108.987778 367.984619,108.987778 
	C367.984619,117.088501 367.984619,124.809029 367.984619,132.852905 
	C362.712341,132.852905 357.981689,132.852905 352.925110,132.852905 
	C352.925110,111.195938 352.925110,89.479897 352.925110,68.174149 
	C364.922455,68.174149 376.879364,67.624260 388.752228,68.385056 
	C395.625305,68.825462 400.394440,73.685257 403.068268,81.015244 
	C403.156036,86.517365 403.122009,91.270729 403.088013,96.024094 
M383.216949,79.922150 
	C378.177032,79.551514 373.137146,79.180885 368.023682,78.804840 
	C368.023682,85.454514 368.023682,91.193619 368.023682,97.254478 
	C371.736298,97.254478 375.190735,97.281914 378.644562,97.247520 
	C382.931061,97.204834 386.775360,96.073135 387.952423,91.414558 
	C389.072388,86.981979 388.616638,82.762093 383.216949,79.922150 
z"/>
<path fill="#FAFAFA" opacity="1.000000" stroke="none" 
	d="
M251.391602,75.051422 
	C251.391617,90.335876 251.391617,105.128502 251.391617,120.397095 
	C262.740967,120.397095 273.661621,120.397095 284.938354,120.397095 
	C284.938354,124.763985 284.938354,128.663376 284.938354,132.878143 
	C269.015289,132.878143 252.938293,132.878143 236.549530,132.878143 
	C236.549530,111.193848 236.549530,89.479179 236.549530,67.483078 
	C241.434769,67.483078 246.163879,67.483078 251.391602,67.483078 
	C251.391602,69.978798 251.391602,72.269196 251.391602,75.051422 
z"/>
<path fill="#F6F6F6" opacity="1.000000" stroke="none" 
	d="
M62.190659,56.009705 
	C62.190659,46.921577 62.190659,37.833447 62.190659,28.528536 
	C58.296101,28.528536 55.030041,28.528536 50.928219,28.528536 
	C50.928219,37.339287 50.928219,46.216702 50.676575,55.667957 
	C50.218708,56.429482 50.078346,56.657684 50.003845,56.926399 
	C47.866829,57.042107 45.729813,57.157810 43.155880,57.297176 
	C43.155880,47.749462 43.155880,38.391808 43.155880,28.306629 
	C39.506664,28.306629 36.269516,28.306629 32.535156,27.978073 
	C31.700386,27.103165 31.362820,26.556812 31.025255,26.010458 
	C31.108332,24.861284 31.191406,23.712111 31.292795,22.309612 
	C49.918777,22.309612 68.453117,22.309612 87.519295,22.309612 
	C87.614594,24.026731 87.710480,25.754480 87.841667,28.118385 
	C81.905792,28.118385 76.208000,28.118385 70.057640,28.118385 
	C70.057640,30.843960 70.057640,32.955688 70.120041,35.906528 
	C71.630219,37.163368 73.065140,37.877983 74.528244,37.941319 
	C78.406509,38.109192 82.296959,37.995548 86.182556,37.993919 
	C86.287819,39.425827 86.393082,40.857735 86.530045,42.720932 
	C80.926620,42.720932 75.823181,42.720932 70.392845,42.720932 
	C70.392845,45.515381 70.392845,47.917206 70.392845,50.644958 
	C76.449066,50.644958 82.522659,50.644958 89.132141,50.644958 
	C89.132141,41.379837 89.132141,31.992056 89.132141,22.345577 
	C91.921669,22.345577 94.186302,22.345577 97.151070,22.345577 
	C97.151070,31.578156 97.151070,40.956200 97.151070,51.020554 
	C103.237320,51.020554 108.650993,51.020554 114.531631,51.426201 
	C114.998505,53.492825 114.998405,55.153797 114.998314,56.814774 
	C106.962082,56.930283 98.925850,57.045792 90.449730,56.640839 
	C89.924034,55.070511 89.838219,54.020649 89.752411,52.970783 
	C89.500473,52.978313 89.248528,52.985844 88.996590,52.993378 
	C88.996590,54.257618 88.996590,55.521862 88.996590,56.786106 
	C80.635101,56.914783 72.273613,57.043461 63.367989,56.868797 
	C62.667004,56.318447 62.455936,56.133194 62.190659,56.009705 
z"/>
<path fill="#F6F6F6" opacity="1.000000" stroke="none" 
	d="
M570.063660,31.347893 
	C570.062744,40.110836 570.062744,48.405483 570.062744,56.946762 
	C567.338196,56.946762 564.934631,56.946762 562.273682,56.946762 
	C562.273682,45.492065 562.273682,34.082375 562.273682,22.070776 
	C570.108582,22.070776 577.869934,22.070776 585.631287,22.070776 
	C586.630188,22.070776 587.629150,22.067907 588.628052,22.071255 
	C594.119385,22.089657 600.560120,20.341852 604.830200,22.635180 
	C608.950867,24.848221 610.832092,31.231079 613.875061,36.064686 
	C615.213318,33.456131 616.959167,30.943094 617.837036,28.156607 
	C619.649353,22.404163 623.350098,20.915642 629.232239,22.527477 
	C624.523987,33.719414 613.894592,42.875103 617.909668,56.969475 
	C614.620117,56.969475 612.196716,56.969475 609.576965,56.969475 
	C609.469543,55.989479 609.218567,55.168110 609.319519,54.392563 
	C610.315369,46.745338 607.794434,40.228931 603.836426,33.753963 
	C601.375183,29.727423 598.984924,27.361319 594.135071,28.269747 
	C592.867065,28.507261 591.516846,28.305519 589.624146,28.305519 
	C589.624146,37.994656 589.624146,47.380482 589.624146,56.975098 
	C586.602600,56.975098 584.177856,56.975098 581.352051,56.975098 
	C581.352051,47.494865 581.352051,38.218838 581.352051,28.315525 
	C578.030273,28.315525 575.077881,28.139282 572.172913,28.432943 
	C571.395691,28.511515 570.763428,30.024906 570.063660,31.347893 
z"/>
<path fill="#F3F3F3" opacity="1.000000" stroke="none" 
	d="
M269.003937,33.999062 
	C269.365479,26.407223 271.133087,24.083008 278.865356,22.190144 
	C281.653046,22.377174 283.811310,22.234091 285.969543,22.091007 
	C290.642487,22.425644 293.063416,25.480419 294.917053,30.162197 
	C292.187866,33.847679 289.237427,33.232906 286.210449,30.010780 
	C284.886566,28.601551 282.344238,28.037405 280.272705,27.795315 
	C279.563660,27.712448 277.667114,30.220329 277.932098,30.785467 
	C278.743103,32.515163 280.052032,34.464840 281.687866,35.266247 
	C285.972961,37.365498 290.534210,38.900944 294.565125,40.494904 
	C295.276672,37.608654 296.093109,34.296810 296.909546,30.984961 
	C302.408844,22.525606 309.708954,19.548906 318.548004,22.161644 
	C324.148804,23.817190 327.143341,27.548777 327.809143,33.898388 
	C325.497162,33.898388 323.204590,33.898388 320.523865,33.898388 
	C319.776703,32.644859 319.075745,30.941654 317.923950,29.636189 
	C314.600708,25.869570 308.194580,26.840473 305.725922,31.633476 
	C302.967438,36.989067 303.044464,42.630329 305.832275,47.932255 
	C308.465271,52.939793 315.870697,53.669315 318.092804,48.845592 
	C320.333588,43.981388 323.567749,44.618286 327.328827,45.071510 
	C327.454559,50.929989 324.274780,55.199776 318.444031,57.060509 
	C309.710693,59.847538 302.702087,57.052151 296.412445,48.273174 
	C293.733521,55.402012 289.744415,58.116417 282.099762,58.012352 
	C274.364349,57.907043 270.454254,55.296467 268.003723,48.151325 
	C268.016235,47.709908 267.961731,47.577675 268.263916,47.216530 
	C272.169556,46.539703 275.466095,46.093899 278.054352,50.059093 
	C278.967743,51.458412 282.782318,51.290760 285.239349,51.169666 
	C286.045013,51.129959 287.651367,48.377392 287.334503,47.901005 
	C286.152466,46.123760 284.469391,44.564236 282.686523,43.343189 
	C281.519257,42.543716 279.856262,42.468372 278.415558,42.067715 
	C274.020538,40.845459 270.597473,38.489216 269.003937,33.999062 
z"/>
<path fill="#F8F8F8" opacity="1.000000" stroke="none" 
	d="
M188.603836,204.993958 
	C188.603806,184.574585 188.603806,164.657272 188.603806,144.470963 
	C193.748840,144.470963 198.476227,144.470963 203.484680,144.470963 
	C203.484680,166.340881 203.484680,188.016800 203.484680,209.942017 
	C198.571152,209.942017 193.837616,209.942017 188.603867,209.942017 
	C188.603867,208.370148 188.603867,206.933075 188.603836,204.993958 
z"/>
<path fill="#F5F5F5" opacity="1.000000" stroke="none" 
	d="
M424.785400,44.905453 
	C424.785400,37.458176 424.785400,30.010897 424.785400,22.319122 
	C427.435059,22.319122 429.701660,22.319122 432.381226,22.319122 
	C432.381226,33.655155 432.381226,45.025200 432.381226,56.446991 
	C424.155426,58.711044 422.351166,57.997646 418.420990,50.842262 
	C415.622040,45.746429 412.814545,40.655235 409.989624,35.573780 
	C409.866547,35.352413 409.531158,35.249092 408.838074,34.785034 
	C408.838074,42.222340 408.838074,49.374859 408.838074,56.858276 
	C406.000214,56.858276 403.600067,56.858276 400.847748,56.858276 
	C400.847748,45.403019 400.847748,33.885578 400.847748,22.561775 
	C407.751251,20.737701 412.343170,22.415567 415.032440,29.385653 
	C417.107971,34.764900 420.456726,39.652885 423.505981,45.320915 
	C424.081635,46.135983 424.390717,46.389427 424.699799,46.642868 
	C424.728333,46.063725 424.756866,45.484589 424.785400,44.905453 
z"/>
<path fill="#F5F5F5" opacity="1.000000" stroke="none" 
	d="
M194.785400,44.905453 
	C194.785400,37.457691 194.785400,30.009928 194.785400,22.319027 
	C197.435303,22.319027 199.701965,22.319027 202.381439,22.319027 
	C202.381439,33.655457 202.381439,45.025696 202.381439,56.447403 
	C194.151123,58.710217 192.351593,57.998497 188.420441,50.841446 
	C185.621414,45.745567 182.813919,40.654320 179.988922,35.572826 
	C179.865967,35.351677 179.530167,35.248859 178.836975,34.786209 
	C178.836975,42.222656 178.836975,49.375702 178.836975,56.858799 
	C175.999008,56.858799 173.598679,56.858799 170.841949,56.858799 
	C170.841949,45.403004 170.841949,33.885651 170.841949,22.563040 
	C177.750443,20.738386 182.343063,22.414701 185.032349,29.385443 
	C187.107697,34.764816 190.456680,39.652821 193.505981,45.320919 
	C194.081665,46.135979 194.390732,46.389412 194.699814,46.642845 
	C194.728348,46.063713 194.756866,45.484585 194.785400,44.905453 
z"/>
<path fill="#F6F6F6" opacity="1.000000" stroke="none" 
	d="
M233.767136,46.895523 
	C232.416214,53.847122 229.226273,56.871300 222.472366,57.108673 
	C216.996475,57.301128 211.508438,57.147732 205.770447,57.147732 
	C205.770447,45.441845 205.770447,34.020031 205.770447,22.135811 
	C211.257355,22.135811 216.539185,21.986162 221.807999,22.183697 
	C225.938782,22.338564 229.912018,23.439409 231.709442,27.684278 
	C233.480835,31.867670 232.071579,35.439579 228.424072,38.075233 
	C230.106079,39.608814 231.544357,40.920174 232.985107,42.928055 
	C233.247437,44.714890 233.507278,45.805206 233.767136,46.895523 
M216.482010,42.102127 
	C210.526566,43.658798 214.931732,47.768196 213.760406,50.810822 
	C216.821228,50.810822 219.421249,51.310513 221.664139,50.631184 
	C223.105240,50.194702 224.910095,48.031765 224.923737,46.626904 
	C224.937576,45.199886 223.198227,43.376091 221.761536,42.439636 
	C220.687805,41.739750 218.874908,42.173832 216.482010,42.102127 
M217.284241,28.265162 
	C210.343460,28.619823 214.905090,33.287144 213.685959,36.216846 
	C215.515991,36.216846 216.667892,36.256912 217.816101,36.208763 
	C220.461258,36.097847 223.603973,36.373466 223.908890,32.698631 
	C224.244827,28.649801 221.024307,28.513899 217.284241,28.265162 
z"/>
<path fill="#F1F1F1" opacity="1.000000" stroke="none" 
	d="
M234.114380,47.000820 
	C233.507278,45.805206 233.247437,44.714890 233.045425,43.340145 
	C233.183319,41.563709 233.218079,40.067665 233.350708,38.580349 
	C234.234375,28.671213 239.098480,22.994343 247.882523,21.585510 
	C257.212585,20.089104 264.043182,24.098318 267.983063,34.054802 
	C268.047791,39.052120 268.004761,43.314896 267.961731,47.577675 
	C267.961731,47.577675 268.016235,47.709908 268.030762,47.779915 
	C264.869781,50.772179 262.150696,54.648014 258.429077,56.429356 
	C249.052246,60.917534 239.192795,56.712914 234.114380,47.000820 
M249.088760,51.736191 
	C251.936844,50.812031 255.474060,50.642899 257.487915,48.804764 
	C261.538239,45.107830 261.131989,34.420338 257.517670,30.264225 
	C254.380447,26.656668 248.515259,26.413633 245.046204,29.747442 
	C239.369965,35.202404 241.282944,47.856178 249.088760,51.736191 
z"/>
<path fill="#F7F7F7" opacity="1.000000" stroke="none" 
	d="
M337.702637,49.007416 
	C337.702637,51.796486 337.702637,54.110130 337.702637,56.805023 
	C335.074432,56.805023 332.686554,56.805023 329.899109,56.805023 
	C329.899109,45.439518 329.899109,33.925259 329.899109,22.241592 
	C332.364410,22.241592 334.664520,22.241592 337.475647,22.241592 
	C337.475647,26.909794 337.475647,31.488287 337.475647,36.450104 
	C342.691071,36.450104 347.417328,36.450104 352.765808,36.450104 
	C352.765808,31.943727 352.765808,27.235769 352.765808,22.308228 
	C355.645111,22.308228 357.918701,22.308228 360.572784,22.308228 
	C360.572784,33.750797 360.572784,45.279785 360.572784,57.003220 
	C358.204315,57.003220 355.913788,57.003220 353.183228,57.003220 
	C353.183228,52.698830 353.183228,48.285408 353.183228,43.508484 
	C347.888336,43.508484 343.021973,43.508484 337.702637,43.508484 
	C337.702637,45.277462 337.702637,46.904728 337.702637,49.007416 
z"/>
<path fill="#F5F5F5" opacity="1.000000" stroke="none" 
	d="
M505.800018,52.423374 
	C505.800018,42.521397 505.800018,32.619419 505.800018,22.590231 
	C512.385071,22.590231 518.946899,22.277203 525.460022,22.705475 
	C529.485718,22.970184 532.539124,25.349085 533.659119,30.262125 
	C533.994812,31.813337 533.996948,32.849522 533.679077,34.032791 
	C531.558228,36.385441 529.757507,38.591007 528.690247,39.898151 
	C530.172729,44.254349 531.498474,48.150017 532.824219,52.045692 
	C533.133179,53.637596 533.442139,55.229504 533.748840,56.821823 
	C525.391602,57.835121 525.391602,57.835121 524.066101,50.257839 
	C522.979065,44.043846 521.650024,43.148575 513.781067,43.770374 
	C513.781067,48.089943 513.781067,52.470581 513.781067,57.149151 
	C511.067169,57.149151 508.936493,57.149151 506.419891,56.640385 
	C505.955994,54.895538 505.877991,53.659454 505.800018,52.423374 
M513.987122,28.887848 
	C513.865540,31.635151 513.744019,34.382454 513.614075,37.318748 
	C516.545593,37.318748 519.042114,37.874157 521.075378,37.142418 
	C522.692444,36.560478 524.754761,34.409554 524.760742,32.947628 
	C524.766663,31.490095 522.718689,29.402834 521.097046,28.723589 
	C519.237244,27.944544 516.855835,28.410482 513.987122,28.887848 
z"/>
<path fill="#F0F0F0" opacity="1.000000" stroke="none" 
	d="
M505.281525,52.234512 
	C505.877991,53.659454 505.955994,54.895538 506.022766,56.415100 
	C496.925873,56.698582 487.840179,56.698582 477.866699,56.698582 
	C477.866699,46.978165 477.866699,37.068363 477.448914,26.710520 
	C477.351990,24.943768 477.672852,23.625059 477.993744,22.306351 
	C486.429047,22.306353 494.864349,22.306353 503.632629,22.306353 
	C503.632629,24.219492 503.632629,26.096514 503.632629,28.265934 
	C498.133087,28.265934 492.677948,28.265934 486.781036,28.265934 
	C486.781036,30.915108 486.781036,33.287754 486.781036,36.237289 
	C491.828339,36.237289 497.057648,36.237289 502.563232,36.237289 
	C502.563232,38.550785 502.563232,40.306198 502.563232,42.663425 
	C497.443481,42.663425 492.229004,42.663425 486.684937,42.663425 
	C486.684937,45.630306 486.684937,48.008553 486.684937,50.286903 
	C492.796814,50.881508 498.779938,51.463577 505.281525,52.234512 
z"/>
<path fill="#F3F3F3" opacity="1.000000" stroke="none" 
	d="
M30.686249,25.927689 
	C31.362820,26.556812 31.700386,27.103165 32.085682,27.980564 
	C32.339493,29.592735 32.545578,30.873863 32.809444,32.514206 
	C28.928303,32.781170 25.286547,34.110130 23.060999,29.249464 
	C22.555746,28.145981 19.579313,27.713573 17.801247,27.838587 
	C16.846327,27.905722 15.074350,30.179560 15.321753,30.819193 
	C15.958140,32.464508 17.242971,34.277473 18.764996,35.068718 
	C21.383131,36.429787 24.452477,36.889557 27.198240,38.046192 
	C31.448257,39.836479 33.717587,43.185852 33.514530,47.842678 
	C33.308456,52.568756 30.460260,55.446430 26.199543,56.975739 
	C17.888195,59.958946 5.351245,56.604626 5.566336,46.994713 
	C9.171513,46.621044 12.733396,45.238495 15.273819,49.843807 
	C15.974810,51.114574 18.828558,51.914413 20.541077,51.700676 
	C22.122248,51.503338 24.184443,49.910313 24.722813,48.448742 
	C25.083158,47.470474 23.478996,45.052769 22.172775,44.331257 
	C19.745405,42.990452 16.857471,42.512428 14.225533,41.507019 
	C8.544797,39.336952 6.397310,36.272137 6.763935,31.119741 
	C7.100876,26.384501 10.220107,23.064270 15.743851,21.837069 
	C21.277065,20.607763 26.334631,21.395407 30.686249,25.927689 
z"/>
<path fill="#F3F3F3" opacity="1.000000" stroke="none" 
	d="
M372.112488,22.063519 
	C375.289368,21.644726 376.419647,22.579302 376.311188,25.541243 
	C376.098389,31.351894 376.199127,37.176506 376.265686,42.994247 
	C376.337341,49.255344 378.408020,51.859596 383.178589,51.914104 
	C388.014648,51.969357 390.091766,49.417095 390.136841,43.175552 
	C390.185944,36.381496 390.147980,29.586813 390.147980,22.429943 
	C392.826172,22.429943 395.203339,22.429943 397.913025,22.429943 
	C397.913025,31.123060 398.517975,39.933285 397.579681,48.575977 
	C397.258087,51.538502 393.521454,55.575378 390.548645,56.467419 
	C386.052368,57.816601 380.718048,57.569027 375.999573,56.656601 
	C370.933990,55.677048 368.474426,51.321148 368.304871,46.225040 
	C368.067261,39.084255 368.064484,31.926743 368.319458,24.789183 
	C368.353302,23.842175 370.489563,22.970270 372.112488,22.063519 
z"/>
<path fill="#F1F1F1" opacity="1.000000" stroke="none" 
	d="
M533.999084,33.885704 
	C533.996948,32.849522 533.994812,31.813337 533.996338,30.388599 
	C536.412842,23.761616 541.886047,20.609293 548.928223,21.402058 
	C555.623901,22.155819 559.059570,25.463676 560.002991,32.387718 
	C556.349304,32.854900 552.845337,34.086407 550.585571,29.293980 
	C550.057129,28.173304 547.120117,27.744698 545.338745,27.844481 
	C544.440430,27.894800 542.737366,30.175741 542.989990,30.862104 
	C543.591675,32.496712 544.867554,34.295605 546.368042,35.093403 
	C548.824097,36.399220 551.747192,36.789925 554.343262,37.877071 
	C558.730164,39.714127 561.280823,42.951572 560.994446,47.940567 
	C560.705811,52.969921 557.658020,55.883137 553.135620,57.090431 
	C546.173828,58.948948 539.578003,58.587826 534.230896,51.803055 
	C533.581543,49.857700 533.247070,48.522938 532.807129,46.767117 
	C536.948486,46.802811 540.343323,45.671833 542.897949,49.913517 
	C543.755371,51.337193 547.573853,51.366486 550.001038,51.249390 
	C550.876038,51.207176 552.622009,48.218586 552.275696,47.694534 
	C551.111145,45.932293 549.296143,44.509079 547.504456,43.286907 
	C546.470032,42.581268 545.005798,42.496666 543.728210,42.158237 
	C539.165283,40.949535 535.564819,38.616005 533.999084,33.885704 
z"/>
<path fill="#F3F3F3" opacity="1.000000" stroke="none" 
	d="
M141.966797,50.913769 
	C142.317078,48.697491 142.929062,46.485966 142.969391,44.264061 
	C143.099045,37.121368 143.017639,29.974844 143.017639,22.446936 
	C151.528000,22.446936 159.875565,22.446936 168.503204,22.446936 
	C168.503204,24.271549 168.503204,26.001604 168.503204,28.210154 
	C162.812378,28.210154 157.232437,28.210154 151.367874,28.210154 
	C151.367874,31.061312 151.367874,33.447239 151.367874,36.217361 
	C156.514359,36.217361 161.602676,36.217361 167.250626,36.217361 
	C167.357071,38.436558 167.447037,40.311855 167.557526,42.615261 
	C162.038727,42.615261 156.955658,42.615261 151.470428,42.615261 
	C151.470428,45.398338 151.470428,47.792545 151.470428,50.684479 
	C156.961029,50.684479 162.695755,50.684479 168.770203,50.684479 
	C168.770203,53.035675 168.770203,54.904213 168.770203,57.154522 
	C160.450821,57.154522 152.179840,57.154522 143.454468,56.643127 
	C142.655655,54.392410 142.311218,52.653091 141.966797,50.913769 
z"/>
<path fill="#F6F6F6" opacity="1.000000" stroke="none" 
	d="
M477.568512,22.202431 
	C477.672852,23.625059 477.351990,24.943768 477.006683,26.605049 
	C473.687897,36.307175 470.476715,45.698040 466.983459,54.982765 
	C466.590332,56.027660 464.670837,56.878620 463.338715,57.102402 
	C461.244965,57.454136 459.048737,57.195839 456.343628,57.195839 
	C452.592346,46.703899 448.823975,36.164234 445.056274,24.924604 
	C445.042480,23.597162 445.028046,22.969685 445.013611,22.342207 
	C447.473633,22.342207 449.933685,22.342207 452.592987,22.342207 
	C455.464661,31.540556 458.317566,40.678764 461.447693,50.704918 
	C464.640991,40.619392 467.535309,31.478052 470.505035,22.098509 
	C472.858887,22.098509 475.001099,22.098509 477.568512,22.202431 
z"/>
<path fill="#F6F6F6" opacity="1.000000" stroke="none" 
	d="
M141.503387,50.963097 
	C142.311218,52.653091 142.655655,54.392410 142.999420,56.522232 
	C133.977371,56.910339 124.955956,56.907944 115.466431,56.860161 
	C114.998405,55.153797 114.998505,53.492825 114.999374,51.416191 
	C115.394714,49.298206 116.103043,47.600830 116.130028,45.892693 
	C116.252792,38.120129 116.183830,30.344530 116.183830,22.325089 
	C118.953819,22.325089 121.220360,22.325089 124.164856,22.325089 
	C124.164856,31.592636 124.164856,40.961163 124.164856,51.012424 
	C130.228912,51.012424 135.634445,51.012424 141.503387,50.963097 
z"/>
<path fill="#F0F0F0" opacity="1.000000" stroke="none" 
	d="
M444.562500,22.293818 
	C445.028046,22.969685 445.042480,23.597162 445.051514,24.538446 
	C444.606171,26.206078 443.804535,27.554682 443.784912,28.914574 
	C443.655457,37.883656 443.698059,46.855179 443.661957,55.825813 
	C443.660767,56.123341 443.417572,56.419895 443.178894,56.963665 
	C440.858368,56.963665 438.434296,56.963665 435.746521,56.963665 
	C435.746521,45.470932 435.746521,34.079517 435.746521,22.245428 
	C438.619293,22.245428 441.365356,22.245428 444.562500,22.293818 
z"/>
<path fill="#161616" opacity="1.000000" stroke="none" 
	d="
M533.679077,34.032791 
	C535.564819,38.616005 539.165283,40.949535 543.728210,42.158237 
	C545.005798,42.496666 546.470032,42.581268 547.504456,43.286907 
	C549.296143,44.509079 551.111145,45.932293 552.275696,47.694534 
	C552.622009,48.218586 550.876038,51.207176 550.001038,51.249390 
	C547.573853,51.366486 543.755371,51.337193 542.897949,49.913517 
	C540.343323,45.671833 536.948486,46.802811 532.807129,46.767117 
	C533.247070,48.522938 533.581543,49.857700 533.962769,51.595585 
	C533.812134,52.009109 533.614624,52.019516 533.120728,52.037804 
	C531.498474,48.150017 530.172729,44.254349 528.690247,39.898151 
	C529.757507,38.591007 531.558228,36.385441 533.679077,34.032791 
z"/>
<path fill="#161616" opacity="1.000000" stroke="none" 
	d="
M268.263916,47.216530 
	C268.004761,43.314896 268.047791,39.052120 268.116455,34.387550 
	C268.142120,33.985760 268.573242,33.978130 268.788574,33.988594 
	C270.597473,38.489216 274.020538,40.845459 278.415558,42.067715 
	C279.856262,42.468372 281.519257,42.543716 282.686523,43.343189 
	C284.469391,44.564236 286.152466,46.123760 287.334503,47.901005 
	C287.651367,48.377392 286.045013,51.129959 285.239349,51.169666 
	C282.782318,51.290760 278.967743,51.458412 278.054352,50.059093 
	C275.466095,46.093899 272.169556,46.539703 268.263916,47.216530 
z"/>
<path fill="#111111" opacity="1.000000" stroke="none" 
	d="
M296.676025,30.877571 
	C296.093109,34.296810 295.276672,37.608654 294.565125,40.494904 
	C290.534210,38.900944 285.972961,37.365498 281.687866,35.266247 
	C280.052032,34.464840 278.743103,32.515163 277.932098,30.785467 
	C277.667114,30.220329 279.563660,27.712448 280.272705,27.795315 
	C282.344238,28.037405 284.886566,28.601551 286.210449,30.010780 
	C289.237427,33.232906 292.187866,33.847679 295.080933,30.469864 
	C295.552979,30.257263 295.997711,30.513721 296.676025,30.877571 
z"/>
<path fill="#F3F3F3" opacity="1.000000" stroke="none" 
	d="
M86.180153,37.567932 
	C82.296959,37.995548 78.406509,38.109192 74.528244,37.941319 
	C73.065140,37.877983 71.630219,37.163368 70.100555,36.346607 
	C75.405022,36.345695 80.791382,36.743820 86.180153,37.567932 
z"/>
<path fill="#F7F7F7" opacity="1.000000" stroke="none" 
	d="
M22.147709,191.501205 
	C17.617752,191.965561 13.002790,192.018921 7.881595,192.107666 
	C7.512446,191.595062 7.661168,190.565582 7.784939,190.568573 
	C12.545616,190.683624 17.304010,190.893158 22.147709,191.501205 
z"/>
<path fill="#323232" opacity="1.000000" stroke="none" 
	d="
M403.368683,96.012833 
	C403.122009,91.270729 403.156036,86.517365 403.196045,81.345940 
	C403.592041,80.385025 403.982025,79.842178 404.571533,79.140442 
	C404.839569,84.364929 404.908051,89.748314 404.873779,95.593140 
	C404.397156,96.036911 404.023285,96.019241 403.368683,96.012833 
z"/>
<path fill="#F1F1F1" opacity="1.000000" stroke="none" 
	d="
M285.672333,21.881239 
	C283.811310,22.234091 281.653046,22.377174 279.239624,22.240826 
	C281.114685,21.864752 283.244904,21.768110 285.672333,21.881239 
z"/>
<path fill="#F7F7F7" opacity="1.000000" stroke="none" 
	d="
M36.608299,200.354889 
	C35.734257,200.640640 34.460815,200.860764 33.089127,200.788757 
	C34.063553,200.427521 35.136223,200.358383 36.608299,200.354889 
z"/>
<path fill="#F8F8F8" opacity="1.000000" stroke="none" 
	d="
M157.637741,200.416168 
	C157.053757,200.680649 156.098816,200.853683 155.068085,200.748993 
	C155.750458,200.422409 156.508621,200.373550 157.637741,200.416168 
z"/>
<path fill="#F3F3F3" opacity="1.000000" stroke="none" 
	d="
M89.245850,56.844772 
	C88.996590,55.521862 88.996590,54.257618 88.996590,52.993378 
	C89.248528,52.985844 89.500473,52.978313 89.752411,52.970783 
	C89.838219,54.020649 89.924034,55.070511 90.006378,56.478600 
	C89.833649,56.859028 89.664383,56.881229 89.245850,56.844772 
z"/>
<path fill="#F8F8F8" opacity="1.000000" stroke="none" 
	d="
M164.772614,143.893311 
	C164.354095,144.083069 163.738190,144.076721 163.056274,143.831116 
	C163.518600,143.626984 164.046921,143.662079 164.772614,143.893311 
z"/>
<path fill="#F8F8F8" opacity="1.000000" stroke="none" 
	d="
M168.797546,144.857727 
	C168.348907,145.030884 167.724136,144.983475 167.046326,144.682281 
	C167.535980,144.498032 168.078720,144.567596 168.797546,144.857727 
z"/>
<path fill="#F8F8F8" opacity="1.000000" stroke="none" 
	d="
M150.752380,143.515228 
	C150.443237,143.907303 149.876343,144.196396 149.171051,144.285583 
	C149.519989,143.861191 150.007309,143.636703 150.752380,143.515228 
z"/>
<path fill="#F7F7F7" opacity="1.000000" stroke="none" 
	d="
M40.811028,143.793823 
	C40.368523,143.997711 39.739262,143.989182 39.050835,143.727020 
	C39.535870,143.509384 40.080067,143.545395 40.811028,143.793823 
z"/>
<path fill="#F7F7F7" opacity="1.000000" stroke="none" 
	d="
M28.738689,143.411804 
	C28.438826,143.805664 27.869078,144.130127 27.156303,144.244415 
	C27.498451,143.803650 27.983627,143.573029 28.738689,143.411804 
z"/>
<path fill="#F7F7F7" opacity="1.000000" stroke="none" 
	d="
M37.781075,170.884216 
	C37.346889,171.039459 36.722713,170.992661 36.045357,170.693146 
	C36.525146,170.520996 37.058117,170.601593 37.781075,170.884216 
z"/>
<path fill="#575757" opacity="1.000000" stroke="none" 
	d="
M424.502197,44.922745 
	C424.756866,45.484589 424.728333,46.063725 424.699799,46.642868 
	C424.390717,46.389427 424.081635,46.135983 423.754028,45.559784 
	C423.896637,45.138035 424.057831,45.039036 424.502197,44.922745 
z"/>
<path fill="#575757" opacity="1.000000" stroke="none" 
	d="
M194.502197,44.922752 
	C194.756866,45.484585 194.728348,46.063713 194.699814,46.642845 
	C194.390732,46.389412 194.081665,46.135979 193.754028,45.559788 
	C193.896637,45.138039 194.057816,45.039047 194.502197,44.922752 
z"/>
<path fill="#F7F7F7" opacity="1.000000" stroke="none" 
	d="
M43.974331,163.292206 
	C44.279835,163.077148 44.536312,163.234192 44.864975,163.663605 
	C44.647865,163.767059 44.310581,163.676498 43.974331,163.292206 
z"/>
<path fill="#F3F3F3" opacity="1.000000" stroke="none" 
	d="
M62.141167,56.290146 
	C62.455936,56.133194 62.667004,56.318447 62.910179,56.760132 
	C62.694897,56.826729 62.393288,56.698658 62.141167,56.290146 
z"/>
<path fill="#F3F3F3" opacity="1.000000" stroke="none" 
	d="
M50.275429,56.960381 
	C50.078346,56.657684 50.218708,56.429482 50.595551,56.131729 
	C50.693119,56.345894 50.620064,56.670124 50.275429,56.960381 
z"/>
<path fill="#040404" opacity="1.000000" stroke="none" 
	d="
M100.665833,197.960388 
	C88.808861,203.378418 78.631485,198.868942 75.483276,186.848083 
	C73.505692,179.297058 73.620148,171.671402 76.686539,164.336090 
	C79.543556,157.501663 85.066589,153.900192 92.286209,154.128723 
	C99.529892,154.358017 104.428917,158.005310 107.143837,164.687912 
	C111.964066,176.552643 109.327393,190.794876 100.665833,197.960388 
z"/>
<path fill="#F8F8F8" opacity="1.000000" stroke="none" 
	d="
M124.924500,174.485626 
	C124.568718,174.251053 124.255600,173.762527 123.942482,173.274002 
	C124.160294,173.170364 124.378098,173.066727 124.595909,172.963104 
	C124.719658,173.385956 124.843407,173.808807 124.924500,174.485626 
z"/>
<path fill="#F8F8F8" opacity="1.000000" stroke="none" 
	d="
M124.036873,181.015564 
	C124.275291,180.544586 124.514687,180.336258 124.754082,180.127930 
	C124.759262,180.709061 124.764435,181.290192 124.769615,181.871323 
	C124.525688,181.673630 124.281769,181.475922 124.036873,181.015564 
z"/>
<path fill="#070707" opacity="1.000000" stroke="none" 
	d="
M49.928040,84.102570 
	C56.845360,93.370651 56.560711,102.941582 52.123764,112.624512 
	C49.814541,117.664017 45.472008,120.578888 39.964149,121.071915 
	C35.690643,121.454445 31.355497,121.148361 26.718235,121.148361 
	C26.718235,107.138046 26.718235,93.270393 26.718235,79.031143 
	C34.865356,79.315681 43.063332,77.511581 49.928040,84.102570 
z"/>
<path fill="#0A0A0A" opacity="1.000000" stroke="none" 
	d="
M489.242493,80.522629 
	C493.442108,83.029732 494.065918,86.961594 492.530151,90.272736 
	C491.409668,92.688690 488.291138,95.164017 485.680023,95.682327 
	C481.240356,96.563629 476.498932,95.924881 471.629852,95.924881 
	C471.629852,90.431709 471.629852,85.025314 471.629852,78.510689 
	C477.573792,79.128395 483.238312,79.717049 489.242493,80.522629 
z"/>
<path fill="#040404" opacity="1.000000" stroke="none" 
	d="
M329.786438,83.334106 
	C335.600769,93.054649 335.567444,102.961632 332.045929,112.924095 
	C329.635101,119.744469 324.152985,123.250656 317.128418,123.304573 
	C309.890625,123.360130 304.658813,120.131241 301.808777,113.464577 
	C298.541504,105.821854 298.394684,97.881683 300.737000,90.023552 
	C304.903107,76.047119 319.316895,72.629036 329.786438,83.334106 
z"/>
<path fill="#040404" opacity="1.000000" stroke="none" 
	d="
M383.608704,80.052925 
	C388.616638,82.762093 389.072388,86.981979 387.952423,91.414558 
	C386.775360,96.073135 382.931061,97.204834 378.644562,97.247520 
	C375.190735,97.281914 371.736298,97.254478 368.023682,97.254478 
	C368.023682,91.193619 368.023682,85.454514 368.023682,78.804840 
	C373.137146,79.180885 378.177032,79.551514 383.608704,80.052925 
z"/>
<path fill="#111111" opacity="1.000000" stroke="none" 
	d="
M216.936584,42.102547 
	C218.874908,42.173832 220.687805,41.739750 221.761536,42.439636 
	C223.198227,43.376091 224.937576,45.199886 224.923737,46.626904 
	C224.910095,48.031765 223.105240,50.194702 221.664139,50.631184 
	C219.421249,51.310513 216.821228,50.810822 213.760406,50.810822 
	C214.931732,47.768196 210.526566,43.658798 216.936584,42.102547 
z"/>
<path fill="#111111" opacity="1.000000" stroke="none" 
	d="
M217.710907,28.271484 
	C221.024307,28.513899 224.244827,28.649801 223.908890,32.698631 
	C223.603973,36.373466 220.461258,36.097847 217.816101,36.208763 
	C216.667892,36.256912 215.515991,36.216846 213.685959,36.216846 
	C214.905090,33.287144 210.343460,28.619823 217.710907,28.271484 
z"/>
<path fill="#070707" opacity="1.000000" stroke="none" 
	d="
M248.711792,51.618240 
	C241.282944,47.856178 239.369965,35.202404 245.046204,29.747442 
	C248.515259,26.413633 254.380447,26.656668 257.517670,30.264225 
	C261.131989,34.420338 261.538239,45.107830 257.487915,48.804764 
	C255.474060,50.642899 251.936844,50.812031 248.711792,51.618240 
z"/>
<path fill="#161616" opacity="1.000000" stroke="none" 
	d="
M514.344116,28.611710 
	C516.855835,28.410482 519.237244,27.944544 521.097046,28.723589 
	C522.718689,29.402834 524.766663,31.490095 524.760742,32.947628 
	C524.754761,34.409554 522.692444,36.560478 521.075378,37.142418 
	C519.042114,37.874157 516.545593,37.318748 513.614075,37.318748 
	C513.744019,34.382454 513.865540,31.635151 514.344116,28.611710 
z"/>
</svg>