<?xml version="1.0" encoding="UTF-8" standalone="no"?>
<svg
   version="1.2"
   viewBox="0 0 3755 568"
   width="3755"
   height="568"
   id="svg20"
   sodipodi:docname="orange.svg"
   inkscape:version="1.4 (e7c3feb1, 2024-10-09)"
   xmlns:inkscape="http://www.inkscape.org/namespaces/inkscape"
   xmlns:sodipodi="http://sodipodi.sourceforge.net/DTD/sodipodi-0.dtd"
   xmlns="http://www.w3.org/2000/svg"
   xmlns:svg="http://www.w3.org/2000/svg">
  <defs
     id="defs20" />
  <sodipodi:namedview
     id="namedview20"
     pagecolor="#505050"
     bordercolor="#eeeeee"
     borderopacity="1"
     inkscape:showpageshadow="0"
     inkscape:pageopacity="0"
     inkscape:pagecheckerboard="0"
     inkscape:deskcolor="#505050"
     inkscape:zoom="0.2147384"
     inkscape:cx="2139.8129"
     inkscape:cy="749.74946"
     inkscape:window-width="1472"
     inkscape:window-height="821"
     inkscape:window-x="0"
     inkscape:window-y="33"
     inkscape:window-maximized="0"
     inkscape:current-layer="svg20" />
  <style
     id="style1">.a{fill:#ff7900}.b{fill:#fff}</style>
  <path
     class="a"
     d="m0.4 0.4h566.9v566.9h-566.9z"
     id="path1" />
  <path
     fill-rule="evenodd"
     class="b"
     d="m222.8 512.5c-8.1 5.2-16.8 7.8-26.1 7.8-14.7 0-23.4-9.8-23.4-22.9 0-17.7 16.2-27 49.6-30.8v-4.4c0-5.8-4.3-9.1-12.3-9.1-8.1 0-14.6 3.2-19.3 9.1l-14-8q11-15.4 33.6-15.4c20.6 0 32.1 8.9 32.1 23.4 0 0 0 57 0.1 57.2h-18.5l-1.8-7zm-29.1-16.5c0 5.2 3.3 10.2 9.4 10.2 6.5 0 12.8-2.7 19.2-8.3v-18.7c-19.4 2.4-28.6 7.4-28.6 16.8z"
     id="path2" />
  <path
     class="b"
     d="m259.4 442.5l17.2-2.3 1.9 9.3c9.7-7.1 17.4-10.8 27.1-10.8 16.2 0 24.6 8.6 24.6 25.6v55h-20.7v-51.4c0-9.6-2.5-14-10.1-14-6.2 0-12.4 2.9-19.4 8.8v56.6h-20.6v-76.7z"
     id="path3" />
  <path
     fill-rule="evenodd"
     class="b"
     d="m467.7 520.8c-23.2 0-37.1-15-37.1-40.9 0-26 14-41.2 36.8-41.2 22.7 0 36.3 14.5 36.3 40.1 0 1.4-0.2 2.7-0.2 4.1h-52.5c0.2 15 6.4 22.5 18.6 22.5 7.8 0 13-3.2 17.9-10.1l15.2 8.4c-6.7 11.2-18.7 17.1-35 17.1zm15.6-51.3c0-10.6-6-16.8-15.9-16.8-9.4 0-15.2 6.1-16.1 16.8 0 0 32 0 32 0z"
     id="path4" />
  <path
     fill-rule="evenodd"
     class="b"
     d="m70.2 521.6c-20.6 0-39.1-13.1-39.1-41.6 0-28.5 18.5-41.6 39.1-41.6 20.5 0 39 13 39 41.6 0 28.6-18.5 41.6-39 41.6zm0-65.7c-15.5 0-18.4 14-18.4 24.1 0 10.1 2.9 24.1 18.4 24.1 15.5 0 18.3-14 18.3-24.1 0-10.1-2.8-24.1-18.3-24.1z"
     id="path5" />
  <path
     class="b"
     d="m123.4 440.4h19.8v9.3c3.7-5 13-10.9 21.7-10.9 0.8 0 1.8 0 2.7 0.2v19.4h-1c-9 0-18.9 1.4-22.1 8.5v52.4h-21.1v-78.9z"
     id="path6" />
  <path
     fill-rule="evenodd"
     class="b"
     d="m418.1 440.1v74.8c0 13.2-1 34.8-38.6 35.1-15.5 0.1-29.9-6.1-32.8-19.7l20.5-3.3c0.9 3.9 3.2 7.8 14.8 7.8 10.8 0 16-5.2 16-17.5v-9.2l-0.3-0.3c-3.3 5.9-8.3 11.5-20.4 11.5-18.4 0-32.9-12.7-32.9-39.4 0-26.7 15-41.2 31.7-41.2 15.2 0 21.2 6.6 22.8 10.5l1.6-9h17.6zm-19.2 9l-0.1 0.4 0.2 0.1q0-0.3-0.1-0.5zm-17.9 53.2c15.8-0.1 17.1-16.1 17.1-26.6 0-12.3-6-22.4-17.2-22.4-7.5 0-15.8 5.5-15.8 23.3 0 9.7 0.7 25.8 15.9 25.7z"
     id="path7" />
  <path
     class="b"
     d="m511.9 414h-8.2v22.6h-4.3v-22.6h-8.2v-3.5h20.7v3.5zm34 22.6h-4.3v-21.8h-0.2l-8.5 21.8h-2.7l-8.6-21.8h-0.1v21.8h-4.3v-26.1h6.6l7.8 19.8 7.7-19.8h6.6c0 0 0 26.1 0 26.1z"
     id="path8" />
  <path
     class="b"
     d="m958.2 204.6q-6.7-10.7-16.7-18.8-10-8.1-22.6-12.6-12.6-4.5-26.4-4.5-25.3 0-42.9 9.7-17.6 9.8-28.6 26.2-10.9 16.4-15.9 37.4-5 20.9-5 43.3c0 14.9 1.7 28.2 5 41.7q5 20.2 15.9 36.4 11 16.2 28.6 26 17.6 9.7 42.9 9.7 34.3 0 53.5-20.9 19.3-21 23.6-55.3h72.4q-2.9 31.9-14.8 57.6-11.9 25.8-31.4 43.9-19.5 18.1-45.7 27.6-26.2 9.5-57.6 9.5-39.1 0-70.3-13.6-31.2-13.5-52.6-37.4-21.4-23.8-32.9-55.9-11.4-32.1-11.4-69.3c0-24.8 3.8-49 11.4-70.7q11.5-32.6 32.9-56.9 21.4-24.3 52.6-38.1 31.2-13.8 70.3-13.8 28.1 0 53.1 8.1 25 8.1 44.7 23.5 19.8 15.5 32.6 38.4 12.9 22.8 16.2 52.4h-72.3q-1.9-12.9-8.6-23.6z"
     id="path9"
     style="fill:#ffffff;fill-opacity:1" />
  <path
     class="b"
     d="m1172.2 527.2q-19.5 12.9-54.3 12.9-10.5 0-20.7-0.7-10.3-0.7-20.7-1.7v-55.7q9.5 0.9 19.5 1.9 10 0.9 20 0.5 13.3-1.5 19.8-10.5 6.4-9.1 6.4-20 0-8.1-2.9-15.3l-86.2-230.9h72l55.7 168.6h0.9l53.8-168.6h70l-102.8 276.7q-11 30-30.5 42.8z"
     id="path10"
     style="fill:#ffffff;fill-opacity:1" />
  <path
     fill-rule="evenodd"
     class="b"
     d="m1390.4 113.9v123.8h0.9q12.4-19 33.6-27.9 21.2-8.8 44.1-8.8 18.5 0 36.6 7.6 18.1 7.7 32.6 23.4 14.6 15.7 23.6 40.2 9.1 24.5 9.1 58.3 0 33.8-9.1 58.4-9 24.5-23.6 40.2-14.5 15.7-32.6 23.3-18.1 7.7-36.6 7.7-27.2 0-48.6-8.6-21.4-8.6-32.4-29.1h-0.9v31.5h-64.3v-340c0 0 67.6 0 67.6 0zm109.5 187.1q-3.3-14.2-10.5-25.2-7.1-11-17.8-17.4-10.7-6.4-26-6.4c-10.1 0-18.4 2.1-25.7 6.4q-10.9 6.4-18.1 17.4-7.1 10.9-10.5 25.2-3.3 14.3-3.3 30c0 10.5 1.1 20 3.3 29.5q3.4 14.3 10.5 25.3 7.2 11 18.1 17.4 11 6.4 25.7 6.4c9.9 0 18.8-2.1 26-6.4q10.7-6.5 17.8-17.4 7.2-11 10.5-25.3 3.3-14.2 3.3-29.5c0-10.1-1.1-20.5-3.3-30z"
     id="path11"
     style="fill:#ffffff;fill-opacity:1" />
  <path
     fill-rule="evenodd"
     class="b"
     d="m1676 394.8q15.2 14.8 43.8 14.8 20.5 0 35.2-10.2 14.8-10.3 18.1-21.7h59.6q-14.3 44.3-43.9 63.3-29.5 19.1-71.4 19.1-29 0-52.4-9.3-23.3-9.3-39.5-26.4-16.2-17.2-25-41-8.8-23.8-8.8-52.4c0-19 3-35.5 9.1-51.4q9-23.8 25.7-41.2 16.6-17.4 39.7-27.4 23.1-10 51.2-10 31.4 0 54.8 12.2 23.3 12.1 38.3 32.6 15 20.5 21.7 46.7 6.6 26.1 4.7 54.7h-177.6q1.4 32.9 16.7 47.6zm76.4-129.5q-12.1-13.3-36.9-13.3-16.2 0-26.9 5.5-10.7 5.4-17.1 13.5-6.5 8.1-9.1 17.2-2.6 9-3.1 16.2h110q-4.7-25.8-16.9-39.1z"
     id="path12"
     style="fill:#ffffff;fill-opacity:1" />
  <path
     class="b"
     d="m1932.1 207.7v45.7h0.9q4.8-11.4 12.9-21.2 8.1-9.7 18.6-16.7 10.5-6.9 22.4-10.7 11.9-3.8 24.7-3.8 6.7 0 14.8 2.4v62.9q-4.8-1-11.4-1.7-6.7-0.7-12.9-0.7-18.6 0-31.4 6.2-12.9 6.2-20.7 16.9-7.9 10.7-11.2 25-3.4 14.3-3.4 30.9v111h-67.6v-246.2z"
     id="path13"
     style="fill:#ffffff;fill-opacity:1" />
  <path
     fill-rule="evenodd"
     class="b"
     d="m2220.9 422.5q-11.9 20-31.2 28.8-19.3 8.8-43.6 8.8-27.6 0-48.5-10.7-21-10.7-34.5-29.1-13.6-18.3-20.5-42.1-6.9-23.8-6.9-49.5c0-17.2 2.3-32.5 6.9-47.9q6.9-23.1 20.5-40.7 13.5-17.6 34-28.3 20.5-10.8 47.6-10.8 21.9 0.1 41.7 9.3 19.8 9.3 31.2 27.4h0.9v-123.8h67.7v340h-64.3v-31.4h-1zm-2.8-121.7q-2.9-14-9.8-24.7-6.9-10.8-17.9-17.4-10.9-6.7-27.6-6.7-16.6 0-28.1 6.7-11.4 6.6-18.3 17.6-6.9 11-10 25-3.1 14-3.1 29.3 0 14.3 3.3 28.6 3.4 14.2 10.7 25.4 7.4 11.2 18.6 18.1 11.2 6.9 26.9 6.9 16.7 0 27.9-6.6 11.2-6.7 17.8-17.9 6.7-11.2 9.6-25.5 2.8-14.3 2.8-29.5 0-15.2-2.8-29.3z"
     id="path14"
     style="fill:#ffffff;fill-opacity:1" />
  <path
     fill-rule="evenodd"
     class="b"
     d="m2401.8 394.8q15.2 14.8 43.8 14.8 20.5 0 35.3-10.2 14.7-10.3 18-21.7h59.6q-14.3 44.3-43.8 63.3-29.6 19.1-71.5 19.1-29 0-52.4-9.3-23.3-9.3-39.5-26.4-16.2-17.2-25-41-8.8-23.8-8.8-52.4c0-19 3-35.5 9.1-51.4q9-23.8 25.7-41.2 16.6-17.4 39.7-27.4 23.1-10 51.2-10 31.5 0 54.8 12.2 23.3 12.1 38.3 32.6 15 20.5 21.7 46.7 6.7 26.1 4.8 54.7h-177.7q1.5 32.9 16.7 47.6zm76.4-129.5q-12.1-13.3-36.9-13.3-16.2 0-26.9 5.5-10.7 5.4-17.1 13.5-6.5 8.1-9.1 17.2-2.6 9-3.1 16.2h110q-4.7-25.8-16.9-39.1z"
     id="path15"
     style="fill:#ffffff;fill-opacity:1" />
  <path
     class="b"
     d="m2565.9 252.9v-45.2h40.5v-19.1q0-32.8 20.5-53.8 20.5-20.9 61.9-20.9 9.1 0 18.1 0.7 9.1 0.7 17.6 1.2v50.5q-11.9-1.5-24.7-1.5-13.8 0-19.8 6.5-5.9 6.4-5.9 21.6v14.8h46.6v45.2h-46.6v201h-67.7v-201h-40.4z"
     id="path16"
     style="fill:#ffffff;fill-opacity:1" />
  <path
     fill-rule="evenodd"
     class="b"
     d="m2809.4 394.8q15.3 14.8 43.8 14.8 20.5 0 35.3-10.2 14.7-10.3 18.1-21.7h59.5q-14.3 44.3-43.8 63.3-29.6 19.1-71.5 19.1-29 0-52.3-9.3-23.4-9.3-39.6-26.4-16.1-17.2-25-41-8.8-23.8-8.8-52.4c0-19 3.1-35.5 9.1-51.4q9-23.8 25.7-41.2 16.7-17.4 39.8-27.4 23.1-10 51.2-10 31.4 0 54.7 12.2 23.3 12.1 38.3 32.6 15 20.5 21.7 46.7 6.7 26.1 4.8 54.7h-177.6q1.4 32.9 16.6 47.6zm76.5-129.5q-12.2-13.3-37-13.3-16.2 0-26.9 5.5-10.7 5.4-17.1 13.5-6.4 8.1-9.1 17.2-2.6 9-3 16.2h110q-4.8-25.8-16.9-39.1z"
     id="path17"
     style="fill:#ffffff;fill-opacity:1" />
  <path
     class="b"
     d="m3065.5 207.7v34.3h1.4q12.9-21.4 33.4-31.2 20.5-9.8 41.9-9.8 27.1 0 44.5 7.4 17.4 7.4 27.4 20.5 10 13.1 14 31.9 4.1 18.8 4.1 41.7v151.4h-67.6v-139q0-30.5-9.5-45.5-9.6-15-33.9-15-27.6 0-40 16.4-12.3 16.4-12.3 54.1v129h-67.7v-246.2h64.3z"
     id="path18"
     style="fill:#ffffff;fill-opacity:1" />
  <path
     class="b"
     d="m3331.1 392.7q4.5 7.8 11.7 12.9 7.1 5 16.4 7.3 9.3 2.4 19.3 2.4 7.1 0 15-1.7 7.8-1.6 14.3-5.2 6.4-3.6 10.7-9.5 4.3-6 4.3-15 0-15.3-20.3-22.9-20.2-7.6-56.4-15.2-14.8-3.3-28.8-7.9-14.1-4.5-25-11.9-11-7.4-17.6-18.6-6.7-11.2-6.7-27.3 0-23.8 9.3-39.1 9.3-15.2 24.5-24 15.2-8.8 34.3-12.4 19-3.6 39.1-3.6 20 0 38.8 3.8 18.8 3.8 33.5 12.9 14.8 9 24.6 24 9.7 15 11.6 37.9h-64.3q-1.4-19.5-14.7-26.4-13.4-6.9-31.5-6.9-5.7 0-12.3 0.7-6.7 0.7-12.2 3.1-5.5 2.4-9.3 6.9-3.8 4.5-3.8 12.1 0 9.1 6.7 14.8 6.7 5.7 17.4 9.3 10.7 3.5 24.5 6.4 13.8 2.8 28.1 6.2 14.7 3.3 28.8 8.1 14 4.7 25 12.6 10.9 7.9 17.6 19.5 6.7 11.7 6.7 28.8 0 24.3-9.8 40.7-9.7 16.5-25.4 26.5-15.8 10-36 14-20.2 4.1-41.2 4.1c-13.9 0-28.2-1.5-41.9-4.3q-20.5-4.3-36.4-14.3-16-10-26.2-26.4-10.3-16.5-11.2-41.2h64.3q0 10.9 4.5 18.8z"
     id="path19"
     style="fill:#ffffff;fill-opacity:1" />
  <path
     fill-rule="evenodd"
     class="b"
     d="m3592.8 394.8q15.2 14.8 43.8 14.8 20.5 0 35.2-10.2 14.8-10.3 18.1-21.7h59.6q-14.3 44.3-43.9 63.3-29.5 19.1-71.4 19.1-29 0-52.4-9.3-23.3-9.3-39.5-26.4-16.2-17.2-25-41-8.8-23.8-8.8-52.4c0-19 3-35.5 9.1-51.4q9-23.8 25.7-41.2 16.6-17.4 39.7-27.4 23.1-10 51.2-10 31.4 0 54.8 12.2 23.3 12.1 38.3 32.6 15 20.5 21.7 46.7 6.6 26.1 4.7 54.7h-177.6q1.4 32.9 16.7 47.6zm76.4-129.5q-12.1-13.3-36.9-13.3-16.2 0-26.9 5.5-10.7 5.4-17.1 13.5-6.5 8.1-9.1 17.2-2.6 9-3.1 16.2h110q-4.7-25.8-16.9-39.1z"
     id="path20"
     style="fill:#ffffff;fill-opacity:1" />
</svg>
