<?xml version="1.0" encoding="UTF-8" standalone="no"?>
<svg
   version="1.0"
   width="64.000000pt"
   height="65.000000pt"
   viewBox="0 0 64.000000 65.000000"
   preserveAspectRatio="xMidYMid meet"
   id="svg2"
   sodipodi:docname="subverted.svg"
   inkscape:version="1.4 (e7c3feb1, 2024-10-09)"
   xmlns:inkscape="http://www.inkscape.org/namespaces/inkscape"
   xmlns:sodipodi="http://sodipodi.sourceforge.net/DTD/sodipodi-0.dtd"
   xmlns="http://www.w3.org/2000/svg"
   xmlns:svg="http://www.w3.org/2000/svg">
  <defs
     id="defs2" />
  <sodipodi:namedview
     id="namedview2"
     pagecolor="#ffffff"
     bordercolor="#000000"
     borderopacity="0.25"
     inkscape:showpageshadow="2"
     inkscape:pageopacity="0.0"
     inkscape:pagecheckerboard="0"
     inkscape:deskcolor="#d1d1d1"
     inkscape:document-units="pt"
     inkscape:zoom="2.2239382"
     inkscape:cx="47.888022"
     inkscape:cy="62.052085"
     inkscape:window-width="1472"
     inkscape:window-height="821"
     inkscape:window-x="0"
     inkscape:window-y="33"
     inkscape:window-maximized="1"
     inkscape:current-layer="svg2" />
  <g
     transform="translate(0.000000,65.000000) scale(0.100000,-0.100000)"
     fill="#000000"
     stroke="none"
     id="g2"
     style="fill:#ffffff;fill-opacity:1">
    <path
       d="M377 326 c-48 -129 -87 -239 -87 -245 0 -14 77 -14 86 0 3 6 46 116 94 245 l87 234 -47 0 -46 0 -87 -234z"
       id="path1"
       style="fill:#ffffff;fill-opacity:1" />
    <path
       d="M150 193 c-52 -20 -67 -80 -28 -107 29 -20 87 -20 116 0 27 19 29 64 4 87 -20 19 -69 29 -92 20z"
       id="path2"
       style="fill:#ffffff;fill-opacity:1" />
  </g>
</svg>
